<?xml version="1.0" standalone="no"?>
<!DOCTYPE svg PUBLIC "-//W3C//DTD SVG 20010904//EN"
 "http://www.w3.org/TR/2001/REC-SVG-20010904/DTD/svg10.dtd">
<svg version="1.0" xmlns="http://www.w3.org/2000/svg"
 width="1700.000000pt" height="2200.000000pt" viewBox="0 0 1700.000000 2200.000000"
 preserveAspectRatio="xMidYMid meet">
<metadata>
Created by potrace 1.16, written by Peter Selinger 2001-2019
</metadata>
<g transform="translate(0.000000,2200.000000) scale(0.100000,-0.100000)"
fill="#000000" stroke="none">
<path d="M8670 19120 c0 -5 -22 -10 -50 -10 l-50 0 0 -90 c0 -53 4 -90 10 -90
6 0 10 -32 10 -75 0 -43 4 -75 10 -75 6 0 10 -13 10 -30 0 -16 5 -30 10 -30 6
0 10 -18 10 -40 0 -29 4 -40 15 -40 8 0 15 -7 15 -15 0 -8 -7 -15 -15 -15 -8
0 -15 -8 -15 -18 0 -10 -9 -24 -20 -32 -21 -15 -28 -50 -10 -50 16 0 12 -109
-4 -126 -9 -9 -35 -14 -70 -14 -43 0 -56 -3 -56 -15 0 -12 -15 -15 -75 -15
-43 0 -75 -4 -75 -10 0 -5 -18 -10 -40 -10 -22 0 -40 -4 -40 -10 0 -5 -18 -10
-40 -10 -22 0 -40 5 -40 10 0 6 -52 10 -135 10 l-135 0 0 35 c0 19 -4 35 -10
35 -5 0 -10 15 -10 34 0 19 -6 37 -12 39 -10 4 -10 6 0 6 6 1 12 10 12 21 0
11 5 20 10 20 6 0 10 20 10 45 0 25 -4 45 -10 45 -6 0 -10 87 -10 241 0 264
-1 269 -59 269 -17 0 -31 -4 -31 -10 0 -6 -47 -10 -120 -10 -73 0 -120 -4
-120 -10 0 -5 -18 -10 -41 -10 -41 0 -88 -29 -61 -38 8 -2 12 -31 12 -93 0
-53 4 -89 10 -89 6 0 10 -11 10 -25 0 -14 -6 -25 -12 -25 -10 0 -9 -3 1 -9 11
-7 11 -9 0 -13 -11 -4 -12 -9 -1 -27 6 -11 12 -28 12 -36 0 -8 5 -15 10 -15 6
0 10 -13 10 -30 0 -16 5 -30 10 -30 6 0 10 -85 10 -235 0 -204 2 -234 15 -229
12 5 15 -4 15 -45 0 -28 5 -51 10 -51 6 0 10 -45 10 -115 0 -65 4 -115 9 -115
6 0 10 -57 10 -132 1 -80 5 -134 11 -136 5 -2 10 -24 10 -48 0 -24 5 -44 10
-44 6 0 10 -21 10 -46 0 -65 13 -74 109 -74 47 0 81 4 81 10 0 6 27 10 60 10
33 0 60 4 60 10 0 6 14 10 30 10 23 0 30 4 30 20 0 11 -5 20 -11 20 -6 0 -9
31 -8 85 1 47 6 85 10 85 5 0 9 9 9 20 0 11 -4 20 -10 20 -6 0 -10 42 -10 105
0 63 -4 105 -10 105 -6 0 -10 33 -10 80 l0 80 69 0 c39 0 73 5 76 10 8 12 95
13 95 1 0 -4 45 -9 100 -9 59 -1 100 3 100 8 0 6 38 10 90 10 l90 0 0 -70 c0
-40 4 -70 10 -70 6 0 10 -38 10 -95 0 -57 4 -95 10 -95 6 0 10 -35 10 -85 0
-50 4 -85 10 -85 6 0 10 -22 10 -50 l0 -50 40 0 c22 0 40 -4 40 -10 0 -5 11
-10 25 -10 14 0 25 -4 25 -10 0 -6 45 -10 115 -10 l115 0 0 171 c0 162 1 171
20 176 19 5 20 14 20 194 0 119 -4 189 -10 189 -5 0 -10 9 -10 20 0 11 -4 20
-10 20 -5 0 -10 23 -10 50 0 28 -4 50 -10 50 -5 0 -10 9 -10 20 0 11 5 20 10
20 6 0 10 42 10 105 0 63 -4 105 -10 105 -6 0 -10 99 -10 276 0 314 3 303 -82
304 -27 0 -48 5 -48 10 0 6 -35 10 -85 10 -50 0 -85 -4 -85 -10z m50 -165 c0
-43 -4 -75 -10 -75 -5 0 -10 -9 -10 -20 0 -11 -4 -20 -10 -20 -6 0 -10 38 -10
95 0 88 1 95 20 95 18 0 20 -7 20 -75z m-980 -195 c0 -11 5 -20 10 -20 6 0 10
-30 10 -69 0 -39 5 -73 10 -76 6 -3 10 -13 10 -21 0 -8 -4 -12 -10 -9 -6 4
-10 -7 -10 -24 0 -17 -4 -31 -10 -31 -6 0 -10 45 -10 115 0 70 -4 115 -10 115
-5 0 -10 9 -10 20 0 11 5 20 10 20 6 0 10 -9 10 -20z m750 -529 c0 -6 -13 -11
-30 -11 -16 0 -30 -4 -30 -10 0 -6 -32 -10 -75 -10 -43 0 -75 4 -75 10 0 6 20
10 45 10 25 0 45 4 45 8 0 5 27 10 60 11 37 1 60 -2 60 -8z m250 -246 c0 -59
-4 -95 -10 -95 -7 0 -10 35 -9 95 1 52 6 95 11 95 4 0 8 -43 8 -95z m0 -190
c0 -19 5 -35 10 -35 6 0 10 -13 10 -30 0 -16 -4 -30 -10 -30 -5 0 -10 -9 -10
-19 0 -11 5 -23 10 -26 6 -3 10 -31 10 -61 0 -30 -4 -54 -10 -54 -5 0 -10 -7
-10 -15 0 -8 -4 -15 -10 -15 -6 0 -10 60 -10 160 0 100 4 160 10 160 6 0 10
-16 10 -35z m-1060 -5 c0 -11 5 -20 10 -20 6 0 10 -57 10 -150 0 -93 -4 -150
-10 -150 -6 0 -10 32 -10 75 0 43 -4 75 -10 75 -6 0 -10 38 -10 95 0 57 4 95
10 95 6 0 10 -9 10 -20z"/>
<path d="M7220 19060 c0 -5 -16 -10 -35 -10 -19 0 -35 -4 -35 -10 0 -5 -16
-10 -35 -10 -19 0 -35 -4 -35 -10 0 -5 -11 -10 -24 -10 -14 0 -28 -4 -31 -10
-3 -5 -31 -10 -61 -10 -30 0 -54 -4 -54 -10 0 -5 -20 -10 -45 -10 -25 0 -45
-4 -45 -10 0 -5 -16 -10 -35 -10 -19 0 -35 -4 -35 -10 0 -5 -18 -10 -39 -10
-22 0 -43 -5 -47 -12 -4 -7 -3 -8 4 -4 7 4 12 2 12 -3 0 -6 -9 -11 -20 -11
-13 0 -20 -7 -20 -20 0 -13 -7 -20 -20 -20 -11 0 -20 -4 -20 -10 0 -5 -18 -10
-40 -10 -22 0 -40 5 -40 10 0 6 -13 10 -30 10 -16 0 -30 -4 -30 -10 0 -5 -20
-10 -45 -10 -25 0 -45 -4 -45 -10 0 -5 -13 -10 -30 -10 -16 0 -30 -4 -30 -10
0 -5 -9 -10 -20 -10 -11 0 -20 -4 -20 -10 0 -5 -13 -10 -30 -10 -16 0 -30 -4
-30 -10 0 -5 -13 -10 -30 -10 -16 0 -30 -4 -30 -10 0 -6 -28 -10 -65 -10 -37
0 -65 -4 -65 -10 0 -5 -9 -10 -20 -10 -11 0 -20 -4 -20 -10 0 -5 -7 -10 -16
-10 -8 0 -22 -6 -30 -14 -16 -16 -19 -76 -4 -76 6 0 10 -13 10 -30 0 -16 5
-30 10 -30 6 0 10 -15 10 -34 0 -19 5 -38 10 -41 6 -3 10 -28 10 -56 0 -40 3
-49 18 -49 10 0 24 9 32 20 8 11 22 20 32 20 10 0 18 5 18 10 0 6 16 10 35 10
19 0 35 5 35 10 0 6 23 10 50 10 28 0 50 5 50 10 0 6 18 10 40 10 22 0 40 5
40 10 0 6 20 10 45 10 25 0 45 5 45 10 0 6 9 10 20 10 11 0 20 5 20 10 0 7 6
7 20 0 14 -7 20 -7 20 0 0 5 5 10 11 10 5 0 7 -4 4 -10 -3 -5 1 -10 9 -10 12
0 16 -10 16 -40 0 -22 5 -40 10 -40 6 0 10 -13 10 -29 0 -17 5 -33 11 -37 8
-4 7 -9 -2 -15 -10 -6 -11 -9 -1 -9 7 0 12 -14 12 -36 0 -21 4 -33 10 -29 6 4
10 -10 10 -34 0 -23 5 -41 10 -41 6 0 10 -13 10 -30 0 -16 5 -30 10 -30 6 0
10 -9 10 -20 0 -11 5 -20 10 -20 6 0 10 -26 10 -58 0 -56 16 -112 33 -112 23
0 35 -31 35 -84 -1 -45 3 -60 21 -75 29 -25 28 -77 -1 -104 -16 -13 -19 -21
-10 -24 6 -3 12 -18 12 -34 0 -16 5 -29 10 -29 6 0 10 -20 10 -45 0 -25 5 -45
10 -45 6 0 10 -13 10 -30 0 -16 5 -30 10 -30 6 0 10 -13 10 -30 0 -16 5 -30
10 -30 6 0 10 -14 10 -31 0 -17 4 -28 10 -24 6 4 10 -5 10 -19 0 -14 5 -26 10
-26 6 0 10 -9 10 -20 0 -27 63 -90 90 -90 11 0 20 -4 20 -10 0 -5 7 -10 16
-10 18 0 44 23 44 40 0 24 30 40 74 40 34 0 46 4 46 15 0 8 9 15 20 15 11 0
20 5 20 10 0 6 9 10 20 10 11 0 20 5 20 10 0 6 7 10 15 10 10 0 15 10 15 30 0
20 -5 30 -15 30 -10 0 -15 10 -15 30 0 17 -4 30 -10 30 -5 0 -10 18 -10 40 0
22 -4 40 -10 40 -5 0 -10 11 -10 25 0 14 -4 25 -10 25 -5 0 -10 18 -10 40 0
22 -4 40 -10 40 -5 0 -10 14 -10 30 0 17 -4 30 -10 30 -6 0 -10 27 -10 60 0
33 -4 60 -10 60 -5 0 -10 20 -10 45 0 25 -4 45 -10 45 -5 0 -10 16 -10 35 0
19 -4 35 -10 35 -5 0 -10 11 -10 25 0 14 -4 25 -8 25 -4 0 -9 15 -10 33 -2 17
-7 34 -12 35 -6 2 -10 12 -10 23 0 10 -4 19 -10 19 -5 0 -10 14 -10 30 0 17
-4 30 -10 30 -5 0 -10 14 -10 30 0 17 -4 30 -10 30 -5 0 -10 18 -10 40 0 29
-4 40 -15 40 -12 0 -15 13 -15 55 0 30 -4 55 -10 55 -5 0 -10 18 -10 40 0 22
-4 40 -10 40 -5 0 -10 18 -10 40 0 22 -4 40 -10 40 -5 0 -10 5 -10 10 0 6 9
10 20 10 11 0 20 7 20 15 0 11 12 15 44 15 25 0 48 5 51 10 3 6 17 10 31 10
13 0 24 5 24 10 0 6 18 10 40 10 22 0 40 5 40 10 0 6 18 10 40 10 22 0 40 5
40 10 0 6 11 10 25 10 14 0 25 5 25 10 0 6 12 10 26 10 15 0 33 8 40 18 16 20
19 102 4 102 -5 0 -10 20 -10 45 0 25 -4 45 -10 45 -5 0 -10 14 -10 30 0 17
-4 30 -10 30 -5 0 -10 14 -10 30 0 29 -2 30 -45 30 -25 0 -45 -4 -45 -10z
m-200 -250 c0 -5 -9 -10 -20 -10 -11 0 -20 -4 -20 -10 0 -5 -11 -10 -25 -10
-28 0 -30 5 -12 25 14 16 77 20 77 5z m15 -1075 c14 -13 25 -31 25 -39 0 -8 6
-16 13 -19 7 -2 0 -15 -20 -34 -25 -24 -33 -39 -33 -67 0 -20 -4 -36 -10 -36
-10 0 -13 22 -10 79 1 19 -4 38 -12 43 -10 7 -10 11 0 15 7 2 12 22 12 44 0
21 2 39 5 39 3 0 17 -11 30 -25z m105 -365 c0 -33 -3 -40 -20 -40 -11 0 -20
-4 -20 -10 0 -5 -13 -10 -30 -10 -16 0 -30 3 -30 6 0 10 28 34 40 34 17 0 40
26 40 44 0 9 5 16 10 16 6 0 10 -18 10 -40z"/>
<path d="M9575 19000 c4 -6 -17 -10 -54 -10 l-61 0 0 -75 c0 -43 -4 -75 -10
-75 -6 0 -10 -52 -10 -135 0 -83 -4 -135 -10 -135 -5 0 -10 -22 -10 -50 0 -27
-4 -50 -10 -50 -5 0 -10 -9 -10 -20 0 -11 -4 -20 -10 -20 -5 0 -10 -13 -10
-30 0 -16 -4 -30 -10 -30 -6 0 -10 -35 -10 -85 0 -50 -4 -85 -10 -85 -6 0 -10
-59 -10 -156 0 -101 -3 -153 -10 -149 -6 4 -10 -19 -10 -62 0 -57 -3 -71 -20
-83 -16 -12 -20 -26 -20 -72 0 -32 -4 -58 -10 -58 -5 0 -10 -25 -10 -55 0 -30
-4 -55 -10 -55 -6 0 -10 -27 -10 -60 0 -33 -4 -60 -10 -60 -5 0 -10 -13 -10
-30 0 -23 4 -30 20 -30 11 0 20 -4 20 -10 0 -6 31 -10 73 -10 59 0 77 -4 95
-20 22 -21 62 -27 62 -10 0 6 18 10 40 10 22 0 40 -4 40 -10 0 -5 21 -10 46
-10 27 0 43 -4 39 -10 -4 -6 25 -10 79 -10 70 0 86 -3 86 -15 0 -11 11 -15 40
-15 22 0 40 -4 40 -10 0 -5 23 -10 50 -10 28 0 50 -4 50 -10 0 -5 20 -10 45
-10 25 0 45 -4 45 -10 0 -5 23 -10 50 -10 28 0 50 -4 50 -10 0 -5 23 -10 50
-10 l50 0 0 40 c0 29 4 40 15 40 12 0 15 13 15 55 0 30 5 55 10 55 6 0 10 18
10 39 0 22 5 41 13 44 8 3 5 11 -10 24 -13 11 -23 28 -23 37 0 14 -14 16 -95
16 -57 0 -95 4 -95 10 0 6 -13 10 -30 10 -20 0 -30 5 -30 15 0 12 -13 15 -55
15 -30 0 -55 5 -55 10 0 6 -40 10 -100 10 -60 0 -100 4 -100 10 0 6 -25 10
-55 10 l-55 0 0 60 c0 33 4 60 10 60 33 0 70 42 70 80 0 20 5 30 15 30 10 0
15 10 15 30 l0 30 86 0 c54 0 83 -4 79 -10 -4 -6 23 -10 75 -10 52 0 79 -4 75
-10 -4 -6 15 -10 50 -10 55 0 85 -14 85 -39 0 -7 25 -11 65 -11 51 0 65 3 65
15 0 8 5 15 10 15 6 0 10 23 10 50 0 28 5 50 10 50 6 0 10 16 10 36 0 21 4 33
10 29 6 -4 10 18 10 59 0 59 -2 66 -20 66 -11 0 -20 5 -20 10 0 6 -9 10 -20
10 -11 0 -20 5 -20 10 0 6 -28 10 -65 10 -37 0 -65 4 -65 10 0 6 -13 10 -30
10 -16 0 -30 5 -30 10 0 6 -13 10 -30 10 -16 0 -30 5 -30 10 0 6 -18 10 -40
10 -22 0 -40 5 -40 10 0 6 -28 10 -65 10 -37 0 -65 4 -65 10 0 6 -18 10 -40
10 -40 0 -40 0 -40 38 0 26 6 42 20 52 11 8 20 20 20 27 0 7 7 13 16 13 28 0
44 27 44 74 0 25 5 46 10 46 6 0 10 14 10 30 0 17 5 30 10 30 6 0 10 -4 10
-10 0 -6 32 -10 75 -10 43 0 75 -4 75 -10 0 -5 18 -10 40 -10 22 0 40 -4 40
-10 0 -5 18 -10 40 -10 22 0 40 -4 40 -10 0 -5 23 -10 51 -10 31 0 48 -4 44
-10 -4 -6 17 -10 54 -10 34 0 61 -4 61 -10 0 -5 9 -10 19 -10 11 0 21 -6 23
-12 6 -17 38 14 38 36 0 9 5 16 10 16 6 0 10 14 10 30 0 17 5 30 10 30 6 0 10
28 10 65 0 51 3 65 15 65 8 0 15 9 15 20 0 11 5 20 10 20 15 0 12 29 -4 46 -8
8 -24 14 -35 14 -12 0 -21 5 -21 10 0 6 -20 10 -44 10 -25 0 -48 5 -51 10 -3
6 -19 10 -36 10 -16 0 -29 5 -29 10 0 6 -20 10 -45 10 -25 0 -45 5 -45 10 0 6
-18 10 -40 10 -22 0 -40 5 -40 10 0 6 -18 10 -40 10 -22 0 -40 5 -40 10 0 6
-13 10 -30 10 -16 0 -30 5 -30 10 0 6 -16 10 -35 10 -24 0 -35 5 -35 15 0 8
-9 15 -20 15 -12 0 -20 -7 -20 -16 0 -10 -7 -14 -17 -12 -10 2 -17 10 -15 16
1 8 -18 12 -63 12 -37 0 -65 4 -65 10 0 6 -27 10 -61 10 -46 0 -66 5 -78 18
-31 33 -103 60 -86 32z m550 -210 c-4 -6 12 -10 39 -10 25 0 46 -4 46 -10 0
-5 9 -10 20 -10 11 0 20 -4 20 -10 0 -5 9 -10 20 -10 11 0 20 -4 20 -10 0 -5
-18 -10 -40 -10 -22 0 -40 5 -40 10 0 6 -9 10 -20 10 -11 0 -20 5 -20 10 0 6
-25 10 -56 10 -34 0 -53 4 -49 10 3 6 -3 10 -14 10 -12 0 -21 5 -21 10 0 6 23
10 51 10 31 0 48 -4 44 -10z m215 -80 c0 -5 -14 -10 -31 -10 -17 0 -28 4 -24
10 3 6 17 10 31 10 13 0 24 -4 24 -10z m-770 -170 c0 -16 -4 -30 -10 -30 -5 0
-10 -9 -10 -20 0 -11 -4 -20 -10 -20 -5 0 -10 -13 -10 -30 0 -16 -4 -30 -10
-30 -5 0 -10 18 -10 40 0 22 5 40 10 40 6 0 10 9 10 20 0 11 5 20 10 20 6 0
10 9 10 20 0 11 5 20 10 20 6 0 10 -13 10 -30z m660 -600 l0 -30 -60 0 c-53 0
-60 2 -60 20 0 15 7 20 26 20 14 0 23 -4 19 -10 -3 -5 -1 -10 4 -10 6 0 11 5
11 11 0 5 4 8 9 4 6 -3 16 1 23 9 20 23 28 19 28 -14z m-160 0 c0 -5 -9 -10
-20 -10 -11 0 -20 5 -20 10 0 6 9 10 20 10 11 0 20 -4 20 -10z m-670 -290 c0
-5 -4 -10 -10 -10 -5 0 -10 -18 -10 -40 0 -22 -4 -40 -10 -40 -6 0 -10 -31
-10 -73 0 -61 -3 -74 -20 -85 -18 -11 -20 -10 -20 18 0 16 5 30 10 30 6 0 10
25 10 55 0 30 5 55 10 55 6 0 10 16 10 35 0 20 6 42 13 50 14 17 27 19 27 5z
m520 -310 c0 -5 12 -10 26 -10 23 0 54 -20 54 -34 0 -3 -13 -6 -30 -6 -16 0
-30 5 -30 10 0 6 -18 10 -40 10 -22 0 -40 5 -40 10 0 6 -18 10 -40 10 -22 0
-40 5 -40 10 0 6 30 10 70 10 40 0 70 -4 70 -10z"/>
<path d="M5750 18520 c0 -5 -13 -10 -28 -10 -16 0 -34 -8 -42 -20 -8 -11 -22
-20 -32 -20 -10 0 -18 -4 -18 -10 0 -5 -9 -10 -20 -10 -11 0 -20 -4 -20 -10 0
-5 -5 -10 -10 -10 -6 0 -26 -16 -45 -35 -25 -24 -35 -43 -35 -65 0 -16 5 -30
10 -30 6 0 10 -9 10 -20 0 -11 5 -20 10 -20 6 0 10 -9 10 -20 0 -11 5 -20 10
-20 6 0 10 -9 10 -20 0 -11 7 -20 15 -20 8 0 15 -9 15 -20 0 -11 5 -20 10 -20
6 0 10 -8 10 -18 0 -10 9 -24 20 -32 11 -8 20 -18 20 -23 0 -12 27 -37 40 -37
16 0 80 -67 80 -85 0 -8 5 -15 10 -15 6 0 10 -13 10 -30 0 -16 5 -30 10 -30 6
0 10 -9 10 -20 0 -11 5 -20 10 -20 6 0 10 -9 10 -21 0 -19 21 -49 35 -49 11 0
35 -28 35 -40 0 -6 5 -8 10 -5 6 3 10 -3 10 -14 0 -12 5 -21 10 -21 6 0 10 -8
10 -18 0 -10 9 -24 20 -32 11 -8 20 -21 20 -30 0 -9 9 -22 20 -30 11 -8 20
-24 20 -35 0 -11 9 -27 20 -35 11 -8 20 -20 20 -28 0 -7 9 -22 20 -34 17 -18
20 -36 20 -105 0 -49 -4 -83 -10 -83 -5 0 -10 -13 -10 -30 0 -16 -4 -30 -10
-30 -5 0 -10 -18 -10 -40 0 -30 -7 -47 -25 -65 -13 -14 -29 -25 -35 -25 -16 0
-60 -47 -60 -65 0 -8 -4 -15 -10 -15 -5 0 -10 -5 -10 -11 0 -23 -30 -39 -75
-39 -30 0 -44 -4 -40 -11 5 -7 -18 -9 -70 -8 -73 2 -125 15 -125 32 0 4 -11 7
-25 7 -14 0 -25 5 -25 11 0 6 -18 28 -40 49 -22 21 -40 46 -40 55 0 9 -4 13
-10 10 -5 -3 -10 1 -10 9 0 9 -4 16 -10 16 -5 0 -10 10 -10 23 0 18 -2 19 -10
7 -8 -12 -10 -11 -10 8 0 12 -4 22 -10 22 -5 0 -10 8 -10 18 0 10 -9 24 -20
32 -11 8 -20 20 -20 27 0 7 -4 13 -10 13 -5 0 -10 9 -10 20 0 11 -4 20 -10 20
-5 0 -10 9 -10 20 0 11 -5 20 -11 20 -14 0 -39 26 -39 40 0 7 -13 25 -30 40
-16 15 -30 34 -30 42 0 7 -9 20 -20 28 -11 8 -20 22 -20 31 0 9 -12 25 -27 35
-16 9 -35 25 -43 34 -8 9 -23 19 -32 23 -13 4 -18 17 -18 42 0 24 -4 35 -15
35 -8 0 -15 9 -15 20 0 11 -4 20 -10 20 -5 0 -10 14 -10 30 0 17 -4 30 -10 30
-5 0 -10 7 -10 15 0 8 -4 15 -10 15 -5 0 -10 7 -10 15 0 9 -11 27 -25 41 l-26
26 -18 -21 c-10 -12 -30 -21 -45 -21 -14 0 -26 -4 -26 -10 0 -5 -7 -10 -16
-10 -18 0 -44 -23 -44 -39 0 -6 -11 -11 -25 -11 -14 0 -25 -4 -25 -10 0 -5 -9
-10 -20 -10 -11 0 -20 -4 -20 -10 0 -5 -7 -10 -15 -10 -18 0 -85 -64 -85 -80
0 -7 18 -29 40 -50 22 -21 40 -45 40 -53 0 -9 4 -17 9 -19 5 -1 11 -12 13 -23
1 -11 10 -27 18 -35 8 -8 21 -27 29 -42 8 -16 18 -28 23 -28 16 0 158 -150
158 -168 0 -10 9 -24 20 -32 11 -8 20 -22 20 -32 0 -10 5 -18 10 -18 6 0 10
-9 10 -20 0 -11 5 -20 10 -20 6 0 10 -8 10 -18 0 -10 9 -24 20 -32 11 -8 20
-22 20 -32 0 -10 5 -18 10 -18 11 0 60 -45 60 -55 0 -13 111 -115 125 -115 8
0 15 -4 15 -10 0 -5 14 -10 30 -10 17 0 30 -4 30 -10 0 -5 5 -10 10 -10 11 0
120 -105 120 -116 0 -3 17 -22 37 -40 36 -33 39 -34 125 -34 52 0 88 -4 88
-10 0 -5 23 -10 50 -10 28 0 50 5 50 10 0 6 28 10 65 10 37 0 65 -4 65 -10 0
-14 37 -12 43 3 4 9 8 8 16 -3 9 -12 14 -13 31 -2 11 6 27 12 35 12 8 0 15 4
15 9 0 5 8 12 19 16 25 8 61 40 61 54 0 6 5 11 11 11 6 0 24 14 39 30 15 17
33 30 39 30 14 0 60 47 53 54 -3 3 2 6 11 6 10 0 17 8 17 20 0 12 7 20 16 20
18 0 46 25 37 34 -4 3 -1 6 6 6 19 0 41 26 41 49 0 12 5 21 11 21 15 0 39 26
39 42 0 8 9 20 20 28 11 8 20 22 20 32 0 10 5 18 10 18 6 0 10 32 10 75 0 43
4 75 10 75 6 0 10 27 10 60 0 33 -4 60 -10 60 -5 0 -10 18 -10 40 0 22 -4 40
-10 40 -5 0 -10 9 -10 20 0 11 -4 20 -10 20 -5 0 -10 11 -10 25 0 14 -4 25
-10 25 -5 0 -10 9 -10 20 0 11 -4 20 -10 20 -5 0 -10 9 -10 20 0 11 -6 20 -13
20 -7 0 -19 9 -27 20 -8 11 -22 20 -32 20 -14 0 -18 8 -18 36 0 21 -4 33 -10
29 -5 -3 -10 2 -10 12 0 10 -9 25 -20 33 -11 8 -20 25 -20 37 0 13 -4 23 -10
23 -5 0 -10 9 -10 20 0 11 -4 20 -10 20 -5 0 -10 6 -10 14 0 7 -18 32 -40 55
-22 22 -40 48 -40 56 0 8 -7 15 -15 15 -8 0 -15 9 -15 20 0 11 -4 20 -10 20
-5 0 -10 7 -10 15 0 8 -4 15 -8 15 -5 0 -15 12 -23 28 -8 15 -22 34 -31 43
-10 9 -18 24 -18 33 0 9 -4 16 -10 16 -5 0 -10 7 -10 16 0 8 -27 42 -60 74
-35 34 -60 68 -60 79 0 12 -6 21 -12 21 -12 0 -38 43 -38 62 0 9 -66 78 -75
78 -3 0 -5 -4 -5 -10z m-65 -205 c14 -13 25 -31 25 -40 0 -8 5 -15 10 -15 6 0
10 -8 10 -18 0 -10 9 -24 20 -32 11 -8 20 -22 20 -32 0 -10 5 -18 10 -18 6 0
10 -9 10 -20 0 -11 5 -20 10 -20 6 0 10 -9 10 -20 0 -11 5 -20 10 -20 6 0 10
-11 10 -25 0 -14 5 -25 10 -25 6 0 10 -9 10 -20 0 -11 7 -20 15 -20 8 0 15 -4
15 -10 0 -5 -11 -10 -25 -10 -18 0 -25 5 -25 20 0 11 -4 20 -10 20 -5 0 -10
16 -10 35 0 19 -4 35 -10 35 -5 0 -10 7 -10 16 0 8 -18 33 -40 54 -23 22 -41
43 -41 47 0 4 -9 18 -19 31 -11 12 -20 29 -20 37 0 8 -4 15 -10 15 -5 0 -10
14 -10 30 0 36 4 37 35 5z m-905 -655 c0 -11 5 -20 10 -20 6 0 10 -9 10 -20 0
-11 5 -20 10 -20 6 0 10 -8 10 -18 0 -10 9 -24 20 -32 12 -9 20 -26 20 -43 0
-20 6 -30 20 -34 11 -3 20 -14 20 -24 0 -12 -7 -19 -20 -19 -13 0 -20 7 -20
18 0 10 -9 24 -20 32 -11 8 -20 24 -20 35 0 11 -9 27 -20 35 -11 8 -20 20 -20
28 0 16 -24 42 -39 42 -6 0 -11 14 -11 30 0 25 4 30 25 30 18 0 25 -5 25 -20z
m1505 -105 c16 -15 25 -36 25 -55 0 -16 5 -30 10 -30 6 0 10 -9 10 -20 0 -11
5 -20 10 -20 6 0 10 -9 10 -20 0 -30 -16 -24 -32 10 -7 17 -16 30 -20 30 -5 0
-8 9 -8 20 0 11 -4 20 -10 20 -5 0 -10 11 -10 25 0 14 -4 25 -10 25 -5 0 -10
9 -10 20 0 26 6 25 35 -5z m-35 -435 c0 -11 -4 -20 -10 -20 -5 0 -10 9 -10 20
0 11 5 20 10 20 6 0 10 -9 10 -20z m-980 -180 c0 -5 9 -10 21 -10 23 0 55 -27
44 -38 -4 -4 -10 -1 -12 6 -3 6 -14 12 -25 12 -10 0 -26 6 -34 14 -16 17 -18
26 -4 26 6 0 10 -4 10 -10z m130 -80 c0 -5 9 -10 20 -10 11 0 20 -4 20 -10 0
-5 7 -10 16 -10 23 0 44 -25 44 -53 0 -14 6 -27 13 -30 6 -2 9 -8 5 -12 -4 -4
-34 20 -67 54 -33 33 -67 61 -75 61 -9 0 -16 5 -16 10 0 6 9 10 20 10 11 0 20
-4 20 -10z"/>
<path d="M11163 18515 c-7 -8 -13 -21 -13 -30 0 -8 -7 -15 -15 -15 -9 0 -15
-10 -15 -26 0 -26 -20 -54 -40 -54 -14 0 -40 -25 -40 -39 0 -6 -4 -11 -10 -11
-5 0 -10 -12 -10 -26 0 -16 -12 -37 -30 -54 -16 -15 -30 -35 -30 -44 0 -9 -4
-16 -10 -16 -5 0 -10 -13 -10 -30 0 -16 -4 -30 -10 -30 -5 0 -10 -9 -10 -20 0
-11 -4 -20 -10 -20 -5 0 -10 -11 -10 -25 0 -14 -4 -25 -10 -25 -5 0 -10 -9
-10 -20 0 -11 -7 -20 -15 -20 -8 0 -15 -7 -15 -16 0 -9 -9 -18 -20 -21 -16 -4
-20 -14 -20 -44 0 -22 -4 -39 -10 -39 -5 0 -10 -8 -10 -18 0 -10 -9 -24 -20
-32 -11 -8 -20 -24 -20 -35 0 -11 -9 -27 -20 -35 -11 -8 -20 -25 -20 -37 0
-13 -4 -23 -10 -23 -5 0 -10 -12 -10 -26 0 -14 -4 -23 -10 -19 -5 3 -10 -1
-10 -9 0 -9 -4 -16 -10 -16 -5 0 -10 -9 -10 -20 0 -11 -4 -20 -10 -20 -5 0
-10 -8 -10 -18 0 -10 -9 -24 -20 -32 -11 -8 -20 -20 -20 -27 0 -7 -8 -13 -18
-13 -14 0 -17 -7 -14 -40 3 -25 0 -40 -7 -40 -6 0 -11 -13 -11 -30 0 -16 -4
-30 -10 -30 -5 0 -10 -9 -10 -20 0 -11 -4 -20 -10 -20 -5 0 -10 -9 -10 -20 0
-11 -4 -20 -10 -20 -5 0 -10 -9 -10 -20 0 -11 -4 -20 -10 -20 -5 0 -10 -7 -10
-15 0 -8 -4 -15 -10 -15 -5 0 -10 -9 -10 -20 0 -11 -4 -20 -10 -20 -5 0 -10
-9 -10 -20 0 -11 -4 -20 -10 -20 -5 0 -10 -9 -10 -20 0 -11 -4 -20 -10 -20 -5
0 -10 -18 -10 -40 0 -33 3 -40 20 -40 11 0 20 -4 20 -10 0 -5 9 -10 20 -10 11
0 20 -4 20 -10 0 -5 9 -10 20 -10 11 0 20 -5 20 -11 0 -16 26 -39 44 -39 9 0
16 -4 16 -10 0 -5 10 -10 23 -10 12 0 29 -9 37 -20 8 -11 20 -20 28 -20 18 0
62 46 62 65 0 8 5 15 10 15 6 0 10 7 10 15 0 8 5 15 10 15 6 0 10 9 10 20 0
11 5 20 10 20 6 0 10 9 10 20 0 11 5 20 10 20 6 0 10 13 10 28 0 16 8 34 20
42 11 8 20 22 20 32 0 10 5 18 10 18 6 0 10 9 10 20 0 11 7 20 15 20 8 0 15 7
15 15 0 8 5 15 10 15 6 0 10 7 10 16 0 8 5 12 10 9 6 -3 10 -1 10 4 0 19 35
12 50 -9 8 -11 22 -20 32 -20 10 0 18 -5 18 -11 0 -16 26 -39 44 -39 9 0 16
-4 16 -10 0 -5 9 -10 20 -10 11 0 20 -4 20 -10 0 -5 11 -10 25 -10 14 0 25 -4
25 -10 0 -5 7 -10 16 -10 28 0 44 -27 44 -74 0 -25 -4 -46 -10 -46 -16 0 -13
-267 3 -274 10 -5 10 -7 0 -12 -9 -4 -13 -30 -13 -80 0 -67 2 -74 20 -74 11 0
20 -4 20 -10 0 -5 9 -10 20 -10 11 0 20 -4 20 -10 0 -5 9 -10 20 -10 11 0 20
-4 20 -10 0 -5 9 -10 20 -10 11 0 20 -4 20 -10 0 -5 11 -10 25 -10 14 0 25 -4
25 -10 0 -5 9 -10 20 -10 11 0 20 -4 20 -10 0 -5 7 -10 16 -10 22 0 44 -25 44
-49 0 -12 6 -21 16 -21 8 0 12 5 9 10 -3 6 -1 10 4 10 7 0 11 51 11 150 0 93
-4 150 -10 150 -6 0 -10 30 -10 70 0 39 -4 70 -8 70 -4 0 -8 9 -9 20 -1 11 2
18 8 15 5 -4 9 1 9 9 0 9 -4 16 -10 16 -6 0 -10 27 -10 60 0 80 26 110 95 110
25 0 45 5 45 10 0 6 13 10 28 10 16 0 38 9 50 20 12 11 28 20 37 20 8 0 15 5
15 10 0 6 7 10 15 10 17 0 85 64 85 80 0 5 8 10 18 10 10 0 24 9 32 20 8 11
20 20 27 20 7 0 13 9 13 20 0 11 5 20 10 20 6 0 10 14 10 30 0 17 5 30 10 30
6 0 10 23 10 50 0 28 5 50 10 50 6 0 10 20 10 45 0 25 5 45 10 45 6 0 10 9 10
20 0 11 5 20 10 20 6 0 10 14 10 30 0 17 5 30 10 30 6 0 10 14 10 30 0 17 -4
30 -10 30 -5 0 -10 9 -10 19 0 11 -4 21 -9 23 -6 2 -11 27 -12 56 -2 28 -6 52
-11 52 -4 0 -8 9 -8 20 0 11 -4 20 -10 20 -5 0 -10 9 -10 20 0 11 -4 20 -10
20 -5 0 -10 7 -10 16 0 15 -23 44 -35 44 -10 0 -35 28 -35 39 0 6 -4 11 -10
11 -5 0 -10 7 -10 15 0 9 -20 36 -45 60 -33 34 -52 45 -75 45 -41 0 -60 20
-60 64 0 32 -3 36 -25 36 -14 0 -25 5 -25 10 0 6 -22 10 -50 10 -27 0 -50 5
-50 10 0 6 -9 10 -20 10 -11 0 -20 7 -20 15 0 8 -7 15 -16 15 -8 0 -32 17 -52
38 -23 23 -49 38 -67 40 -16 2 -31 8 -33 13 -2 5 -12 9 -23 9 -10 0 -19 5 -19
10 0 6 -11 10 -25 10 -14 0 -25 5 -25 10 0 6 -16 10 -35 10 -19 0 -35 5 -35
10 0 15 -33 11 -47 -5z m-43 -294 c0 -11 -4 -23 -10 -26 -5 -3 -10 -22 -10
-41 0 -27 -4 -34 -20 -34 -13 0 -20 -7 -20 -20 0 -11 -4 -20 -10 -20 -5 0 -10
-7 -10 -15 0 -8 -5 -15 -11 -15 -6 0 -9 -9 -6 -20 3 -12 0 -20 -7 -20 -6 0
-18 -9 -26 -20 -8 -11 -18 -20 -22 -20 -4 0 -8 9 -8 20 0 11 5 20 10 20 6 0
10 9 10 20 0 11 5 20 10 20 6 0 10 16 10 35 0 19 5 35 10 35 6 0 10 7 10 15 0
15 78 103 93 104 4 1 7 -8 7 -18z m250 -201 c0 -5 16 -10 35 -10 19 0 35 -4
35 -10 0 -5 11 -10 25 -10 19 0 51 -25 120 -95 88 -88 95 -98 95 -135 0 -29 4
-40 15 -40 12 0 15 -15 15 -74 0 -56 -4 -75 -15 -80 -8 -3 -15 -15 -15 -26 0
-25 -22 -50 -44 -50 -9 0 -16 -4 -16 -10 0 -5 -13 -10 -30 -10 -16 0 -30 5
-30 10 0 6 -25 10 -56 10 -54 0 -84 14 -84 39 0 6 -11 11 -25 11 -14 0 -25 5
-25 10 0 6 -9 10 -20 10 -11 0 -20 5 -20 10 0 6 -9 10 -20 10 -11 0 -20 5 -20
10 0 6 -13 10 -30 10 -16 0 -30 5 -30 10 0 6 -7 10 -16 10 -8 0 -22 6 -30 14
-16 17 -19 66 -4 66 6 0 10 9 10 20 0 11 5 20 10 20 6 0 10 9 10 20 0 11 5 20
10 20 6 0 10 5 10 11 0 6 14 24 30 39 17 15 30 38 30 50 0 11 5 18 10 15 6 -4
10 10 10 34 0 23 5 41 10 41 6 0 10 11 10 23 0 13 3 27 7 30 10 11 33 8 33 -3z
m460 0 c0 -5 -4 -10 -10 -10 -5 0 -10 5 -10 10 0 6 5 10 10 10 6 0 10 -4 10
-10z m60 -120 c0 -5 -4 -10 -10 -10 -5 0 -10 5 -10 10 0 6 5 10 10 10 6 0 10
-4 10 -10z m-85 -506 c-36 -36 -43 -23 -8 15 15 16 29 26 31 21 2 -5 -8 -21
-23 -36z m-1135 -19 c0 -9 -11 -27 -25 -41 -14 -14 -22 -30 -19 -36 4 -7 2 -8
-4 -4 -15 9 -16 36 -2 36 6 0 10 7 10 15 0 17 20 44 33 45 4 0 7 -7 7 -15z
m-60 -95 c0 -5 -4 -10 -10 -10 -5 0 -10 -11 -10 -25 0 -16 -6 -25 -15 -25 -8
0 -15 -9 -15 -20 0 -11 -4 -20 -10 -20 -5 0 -10 -7 -10 -16 0 -20 -29 -49 -38
-39 -4 4 -1 10 6 12 6 3 12 13 12 24 0 10 5 19 10 19 6 0 10 9 10 20 0 11 5
20 10 20 6 0 10 11 10 25 0 16 6 25 15 25 8 0 15 5 15 10 0 6 5 10 10 10 6 0
10 -4 10 -10z m990 -15 c0 -15 -38 -45 -57 -45 -13 0 -23 -4 -23 -10 0 -5 -13
-10 -30 -10 -25 0 -30 4 -30 25 0 18 5 25 20 25 11 0 20 5 20 10 0 6 23 10 50
10 28 0 50 -2 50 -5z m-250 -280 c0 -19 -4 -35 -10 -35 -5 0 -10 16 -10 35 0
19 5 35 10 35 6 0 10 -16 10 -35z m-20 -150 c0 -37 -4 -65 -10 -65 -11 0 -14
113 -3 123 12 13 13 7 13 -58z m20 -120 c0 -19 -4 -35 -10 -35 -5 0 -10 16
-10 35 0 19 5 35 10 35 6 0 10 -16 10 -35z"/>
<path d="M12760 17590 c0 -5 -7 -10 -15 -10 -15 0 -65 -43 -65 -55 0 -4 -22
-28 -50 -55 -27 -27 -50 -54 -50 -60 0 -6 -4 -9 -8 -6 -5 3 -15 -4 -22 -15 -8
-10 -18 -19 -23 -19 -12 0 -57 -47 -57 -61 0 -6 -13 -24 -30 -39 -16 -15 -30
-31 -30 -34 0 -4 -31 -38 -70 -76 -38 -38 -70 -74 -70 -80 0 -17 -26 -40 -45
-40 -26 0 -45 -26 -45 -59 0 -17 -4 -31 -10 -31 -5 0 -10 -7 -10 -15 0 -18
-64 -85 -80 -85 -6 0 -33 -22 -60 -50 -27 -27 -51 -50 -55 -50 -14 0 -55 -50
-55 -67 0 -10 -9 -25 -20 -33 -11 -8 -20 -20 -20 -28 0 -7 -8 -16 -17 -19 -23
-9 -83 -69 -83 -83 0 -11 -65 -80 -75 -80 -13 0 -35 -29 -35 -46 0 -17 -35
-54 -52 -54 -14 0 -9 -60 6 -76 8 -8 22 -14 31 -14 9 0 14 -4 11 -9 -3 -5 1
-11 9 -15 8 -3 15 -13 15 -22 0 -10 5 -14 15 -10 8 3 15 0 15 -7 0 -7 9 -19
20 -27 11 -8 20 -20 20 -27 0 -7 7 -13 15 -13 8 0 15 -4 15 -10 0 -5 7 -10 15
-10 8 0 15 -4 15 -10 0 -5 18 -10 40 -10 33 0 40 3 40 20 0 11 5 20 10 20 6 0
10 7 10 15 0 8 9 15 20 15 13 0 20 7 20 20 0 11 5 20 11 20 6 0 24 14 39 30
15 17 33 30 39 30 17 0 61 47 61 65 0 8 5 15 10 15 6 0 10 8 10 18 0 10 9 24
20 32 11 8 20 18 20 23 0 5 14 22 30 37 17 15 30 35 30 44 0 9 5 16 10 16 16
0 100 88 100 105 0 8 5 15 10 15 6 0 10 14 10 30 0 17 5 30 10 30 6 0 10 7 10
15 0 10 10 15 30 15 17 0 30 5 30 10 0 6 18 10 40 10 36 0 40 -2 40 -25 0 -16
6 -25 15 -25 11 0 15 -12 15 -50 0 -27 5 -50 10 -50 6 0 10 -22 10 -50 0 -27
5 -50 10 -50 6 0 10 -113 10 -320 0 -207 4 -320 10 -320 6 0 10 -7 10 -15 0
-8 5 -15 10 -15 6 0 10 -9 10 -20 0 -11 5 -20 10 -20 6 0 10 -9 10 -20 0 -11
5 -20 10 -20 6 0 10 -55 10 -145 0 -90 4 -145 10 -145 6 0 10 -22 10 -50 0
-27 3 -50 6 -50 3 0 27 23 54 50 27 28 53 50 59 50 6 0 11 7 11 16 0 8 23 37
50 64 28 27 50 51 50 55 0 3 27 33 60 65 33 32 60 66 60 74 0 9 3 16 8 16 4 0
13 14 20 30 8 17 20 30 28 30 8 0 14 5 14 10 0 6 7 10 15 10 15 0 65 43 65 56
0 3 14 19 30 34 17 15 30 35 30 45 0 9 5 13 10 10 6 -3 10 1 10 9 0 9 4 16 8
16 5 0 15 12 23 28 8 15 22 36 32 46 9 11 17 26 17 33 0 7 5 13 11 13 12 0 39
25 39 37 0 5 9 15 20 23 11 8 20 20 20 27 0 7 4 13 9 13 13 0 91 76 91 89 0
14 86 101 100 101 5 0 10 7 10 15 0 8 5 15 10 15 6 0 10 7 10 15 0 20 105 125
125 125 8 0 15 5 15 10 0 6 9 10 20 10 17 0 20 7 20 40 0 22 -4 40 -10 40 -5
0 -10 9 -10 21 0 11 -21 41 -48 67 -26 26 -51 55 -55 65 -3 9 -13 17 -22 17
-8 0 -15 5 -15 10 0 6 -9 10 -20 10 -11 0 -20 5 -20 10 0 6 -7 10 -15 10 -8 0
-15 5 -15 10 0 15 -49 12 -66 -4 -8 -8 -14 -22 -14 -30 0 -9 -4 -16 -10 -16
-5 0 -10 -9 -10 -20 0 -11 -4 -20 -10 -20 -5 0 -10 -7 -10 -16 0 -9 -13 -29
-30 -44 -16 -15 -30 -31 -30 -34 0 -14 -50 -56 -65 -56 -9 0 -34 -18 -55 -40
-21 -22 -44 -40 -50 -40 -7 0 -25 -13 -40 -30 -15 -16 -33 -30 -40 -30 -21 0
-40 -28 -40 -62 0 -33 -36 -88 -59 -88 -6 0 -11 -4 -11 -10 0 -5 -8 -10 -18
-10 -10 0 -24 -9 -32 -20 -8 -11 -22 -20 -31 -20 -10 0 -23 -13 -31 -30 -7
-16 -16 -30 -20 -30 -5 0 -8 -7 -8 -16 0 -20 -24 -44 -44 -44 -13 0 -16 13
-16 65 0 37 -4 65 -10 65 -6 0 -10 43 -10 110 0 67 4 110 10 110 6 0 10 90 10
249 0 156 -4 252 -10 256 -6 4 -10 70 -10 166 0 104 3 158 10 154 6 -4 10 15
10 49 0 31 5 56 10 56 6 0 10 7 10 15 0 8 -4 15 -10 15 -5 0 -10 12 -10 26 0
29 -21 54 -44 54 -9 0 -16 8 -16 20 0 15 -7 20 -25 20 -14 0 -25 -4 -25 -10z
m0 -410 c0 -73 -4 -120 -10 -120 -5 0 -10 13 -10 29 0 16 -6 32 -12 35 -10 5
-10 7 0 12 8 4 12 31 12 85 0 46 4 79 10 79 6 0 10 -47 10 -120z m850 -440 c0
-5 5 -10 11 -10 17 0 39 -27 39 -49 0 -16 -6 -21 -25 -21 -14 0 -25 5 -25 10
0 6 -9 10 -20 10 -12 0 -20 7 -20 17 0 14 -3 13 -20 -5 -12 -12 -22 -22 -24
-22 -7 0 8 55 18 67 13 15 66 17 66 3z m-1590 -110 c0 -5 -4 -10 -10 -10 -5 0
-10 -7 -10 -16 0 -16 -23 -44 -36 -44 -3 0 -15 -10 -25 -22 -11 -11 -22 -18
-26 -15 -3 4 4 15 15 26 12 10 22 30 22 45 0 16 5 26 15 26 8 0 15 5 15 10 0
6 9 10 20 10 11 0 20 -4 20 -10z m660 -240 c0 -49 4 -70 13 -71 10 0 10 -2 0
-6 -7 -2 -13 -15 -13 -28 0 -13 -4 -27 -10 -30 -6 -4 -10 32 -10 99 0 64 4
106 10 106 6 0 10 -30 10 -70z m-830 40 c0 -5 -4 -10 -10 -10 -5 0 -10 -6 -10
-13 0 -7 -9 -19 -20 -27 -11 -8 -20 -20 -20 -28 0 -18 -46 -62 -65 -62 -8 0
-15 9 -15 20 0 11 5 20 10 20 6 0 10 8 10 18 0 10 9 24 20 32 11 8 20 20 20
27 0 7 9 13 20 13 11 0 20 5 20 10 0 6 9 10 20 10 11 0 20 -4 20 -10z m1580
-85 c0 -8 -68 -75 -75 -75 -10 0 -54 -48 -57 -62 -2 -7 -15 -25 -30 -39 -16
-15 -28 -30 -28 -33 0 -8 -67 -76 -75 -76 -14 0 -3 37 15 50 11 8 20 19 20 25
0 6 9 17 20 25 11 8 20 22 20 32 0 11 7 18 20 18 11 0 20 7 20 15 0 22 65 85
87 85 10 0 25 9 33 20 13 19 30 27 30 15z m-730 -115 c0 -11 -4 -20 -10 -20
-5 0 -10 9 -10 20 0 11 5 20 10 20 6 0 10 -9 10 -20z m110 -450 c0 -5 9 -10
20 -10 11 0 20 -4 20 -10 0 -5 -4 -10 -10 -10 -5 0 -10 -9 -10 -20 0 -11 -4
-20 -10 -20 -5 0 -10 -9 -10 -20 0 -11 -7 -20 -15 -20 -8 0 -15 -4 -15 -10 0
-5 -4 -10 -10 -10 -5 0 -10 14 -10 30 0 17 5 30 10 30 6 0 10 9 10 20 0 11 -4
20 -10 20 -5 0 -10 9 -10 20 0 15 7 20 25 20 14 0 25 -4 25 -10z"/>
<path d="M4200 17260 c0 -5 -7 -10 -15 -10 -8 0 -15 -7 -15 -15 0 -11 -11 -15
-40 -15 -22 0 -40 -4 -40 -10 0 -5 -18 -10 -40 -10 -22 0 -40 -4 -40 -10 0 -5
-9 -10 -20 -10 -11 0 -20 -4 -20 -10 0 -5 -9 -10 -20 -10 -11 0 -20 -4 -20
-10 0 -5 -10 -10 -23 -10 -12 0 -29 -9 -37 -20 -8 -11 -22 -20 -32 -20 -10 0
-18 -4 -18 -10 0 -5 -7 -10 -15 -10 -14 0 -125 -102 -125 -115 0 -8 -27 -35
-35 -35 -12 0 -35 -29 -35 -44 0 -9 -4 -16 -10 -16 -5 0 -10 -9 -10 -20 0 -11
-4 -20 -10 -20 -5 0 -10 -9 -10 -20 0 -11 -4 -20 -10 -20 -5 0 -10 -9 -10 -20
0 -11 -4 -20 -10 -20 -5 0 -10 -9 -10 -20 0 -11 -4 -20 -10 -20 -5 0 -10 -16
-10 -35 0 -19 -4 -35 -10 -35 -5 0 -10 -15 -10 -34 0 -19 -4 -38 -10 -41 -5
-3 -10 -24 -10 -46 0 -21 -4 -39 -10 -39 -6 0 -10 -38 -10 -95 0 -57 4 -95 10
-95 6 0 10 -13 10 -30 0 -16 5 -30 10 -30 6 0 10 -18 10 -40 0 -22 5 -40 10
-40 6 0 10 -20 10 -45 0 -25 5 -45 10 -45 6 0 10 -10 10 -23 0 -13 9 -33 20
-45 11 -12 20 -31 20 -43 0 -11 14 -34 30 -49 17 -15 30 -33 30 -39 0 -6 5
-11 10 -11 6 0 60 -49 120 -110 60 -60 116 -110 125 -110 8 0 15 -4 15 -10 0
-5 16 -10 35 -10 19 0 35 -4 35 -10 0 -5 9 -10 20 -10 11 0 20 -7 20 -15 0 -8
9 -15 20 -15 11 0 20 -4 20 -10 0 -5 14 -10 30 -10 17 0 30 -4 30 -10 0 -5 9
-10 19 -10 11 0 22 -6 24 -12 4 -10 8 -9 16 2 11 16 124 17 129 0 5 -14 292
-13 292 0 0 6 9 10 20 10 11 0 20 5 20 10 0 6 14 10 30 10 17 0 30 5 30 10 0
6 9 10 20 10 11 0 20 7 20 15 0 10 10 15 30 15 17 0 30 5 30 10 0 6 10 10 23
10 12 0 29 9 37 20 8 11 20 20 27 20 19 0 103 86 103 105 0 8 5 15 10 15 6 0
10 9 10 20 0 11 5 20 10 20 6 0 10 9 10 20 0 11 7 20 15 20 8 0 15 5 15 11 0
6 14 24 30 39 24 23 30 36 30 70 0 33 4 43 20 47 11 3 20 14 20 24 0 11 5 19
10 19 6 0 10 9 10 20 0 11 5 20 10 20 6 0 10 11 10 25 0 14 5 25 10 25 6 0 10
14 10 30 0 17 5 30 10 30 6 0 10 14 10 30 0 17 5 30 10 30 6 0 10 48 10 125 0
77 -4 125 -10 125 -5 0 -10 9 -10 20 0 11 -4 20 -10 20 -5 0 -10 13 -10 28 0
16 -8 34 -20 42 -11 8 -20 22 -20 32 0 10 -4 18 -10 18 -5 0 -10 7 -10 15 0 8
5 15 10 15 6 0 10 9 10 20 0 11 -4 20 -10 20 -5 0 -10 9 -10 20 0 11 -4 20
-10 20 -5 0 -10 7 -10 16 0 9 -13 29 -30 44 -16 15 -30 33 -30 40 0 12 -24 40
-35 40 -8 0 -35 27 -35 35 0 11 -28 35 -40 35 -6 0 -38 27 -70 60 -32 33 -64
60 -70 60 -7 0 -25 14 -40 30 -15 17 -37 30 -49 30 -12 0 -21 5 -21 10 0 6 -9
10 -20 10 -11 0 -20 5 -20 10 0 6 -9 10 -20 10 -11 0 -20 7 -20 15 0 10 -10
15 -31 15 -17 0 -28 4 -24 10 4 7 -60 10 -184 10 -121 0 -191 -4 -191 -10z
m390 -190 c0 -5 14 -10 30 -10 17 0 30 -4 30 -10 0 -5 14 -10 30 -10 17 0 30
-4 30 -10 0 -5 11 -10 25 -10 14 0 25 -4 25 -10 0 -5 9 -10 20 -10 15 0 20 -7
20 -25 0 -14 -4 -25 -10 -25 -5 0 -10 7 -10 15 0 10 -11 15 -35 15 -19 0 -35
5 -35 10 0 6 -16 10 -36 10 -27 0 -43 7 -64 30 -18 19 -38 30 -55 30 -15 0
-24 4 -20 10 3 6 17 10 31 10 13 0 24 -4 24 -10z m-230 -150 c0 -5 23 -10 50
-10 28 0 50 -4 50 -10 0 -5 22 -10 49 -10 28 0 53 -4 56 -10 3 -5 14 -10 23
-10 10 0 24 -9 32 -20 8 -11 25 -20 38 -20 14 0 36 -13 52 -30 15 -16 31 -30
35 -30 12 0 35 -29 35 -44 0 -9 5 -16 10 -16 6 0 10 -7 10 -15 0 -8 5 -15 10
-15 6 0 10 -8 10 -18 0 -10 9 -24 20 -32 11 -8 20 -22 20 -32 0 -10 5 -18 10
-18 6 0 10 -62 10 -165 0 -103 -4 -165 -10 -165 -5 0 -10 -17 -10 -38 0 -26
-6 -42 -20 -52 -12 -9 -20 -26 -20 -43 0 -27 -57 -97 -80 -97 -5 0 -10 -16
-10 -35 0 -19 -4 -35 -10 -35 -5 0 -10 -5 -10 -11 0 -19 -28 -39 -54 -39 -14
0 -26 -4 -26 -10 0 -5 -9 -10 -20 -10 -11 0 -20 -7 -20 -15 0 -11 -11 -15 -40
-15 -22 0 -40 -4 -40 -10 0 -6 -35 -10 -84 -10 -58 0 -86 -4 -88 -12 -5 -14
-58 34 -58 52 0 5 -13 10 -30 10 -16 0 -30 5 -30 10 0 6 -16 10 -35 10 -19 0
-35 5 -35 10 0 6 -8 10 -18 10 -10 0 -24 9 -32 20 -8 11 -22 20 -32 20 -10 0
-18 5 -18 10 0 6 -7 10 -15 10 -20 0 -65 45 -65 65 0 8 -9 15 -20 15 -13 0
-20 7 -20 20 0 11 -7 20 -15 20 -10 0 -15 11 -15 35 0 19 -4 35 -10 35 -5 0
-10 14 -10 30 0 17 -4 30 -10 30 -5 0 -10 9 -10 20 0 11 -4 20 -10 20 -5 0
-10 9 -10 20 0 11 -4 20 -10 20 -6 0 -10 28 -10 65 0 37 -4 65 -10 65 -6 0
-10 30 -10 70 0 40 4 70 10 70 6 0 10 7 10 15 0 23 66 85 90 85 11 0 20 5 20
11 0 14 25 39 39 39 15 0 141 126 141 141 0 20 29 39 59 39 17 0 31 5 31 10 0
6 33 10 80 10 47 0 80 -4 80 -10z m-730 -290 c0 -5 -4 -10 -10 -10 -5 0 -10 5
-10 10 0 6 5 10 10 10 6 0 10 -4 10 -10z m-40 -89 c0 -38 -5 -61 -12 -65 -10
-5 -10 -7 0 -12 6 -3 12 -21 12 -40 0 -27 -4 -34 -20 -34 -18 0 -20 7 -20 75
0 43 4 75 10 75 6 0 10 14 10 30 0 17 5 30 10 30 6 0 10 -26 10 -59z m1480 38
c0 -11 -4 -17 -10 -14 -5 3 -10 13 -10 21 0 8 5 14 10 14 6 0 10 -9 10 -21z
m60 -179 c0 -22 -4 -40 -10 -40 -5 0 -10 18 -10 40 0 22 5 40 10 40 6 0 10
-18 10 -40z m-112 -329 c-1 -16 -6 -27 -10 -25 -4 3 -8 -2 -8 -10 0 -9 -4 -16
-10 -16 -5 0 -10 -7 -10 -15 0 -20 -69 -90 -78 -80 -4 4 -1 10 6 12 6 3 12 13
12 24 0 10 5 19 10 19 6 0 10 11 10 25 0 23 53 93 73 94 4 1 6 -12 5 -28z
m-758 -371 c0 -5 18 -10 40 -10 22 0 40 -4 40 -10 0 -6 32 -10 75 -10 43 0 75
-4 75 -10 0 -5 -7 -10 -15 -10 -8 0 -15 -4 -15 -10 0 -5 -22 -10 -50 -10 -27
0 -50 5 -50 10 0 6 -18 10 -40 10 -22 0 -40 5 -40 10 0 6 -11 10 -25 10 -14 0
-25 5 -25 10 0 6 -26 10 -58 10 -46 0 -60 -4 -72 -20 -15 -21 -50 -28 -50 -10
0 6 -13 10 -30 10 -23 0 -30 4 -30 20 0 19 7 20 135 20 83 0 135 -4 135 -10z"/>
<path d="M6640 16650 c0 -5 -9 -10 -20 -10 -11 0 -20 -4 -20 -10 0 -5 -9 -10
-20 -10 -11 0 -20 -4 -20 -10 0 -5 -9 -10 -20 -10 -11 0 -20 -4 -20 -10 0 -5
-7 -10 -15 -10 -18 0 -65 -44 -65 -60 0 -6 -5 -8 -10 -5 -6 4 -10 3 -9 -2 4
-21 -2 -33 -16 -33 -8 0 -15 -9 -15 -20 0 -11 -4 -20 -10 -20 -5 0 -10 -20
-10 -45 0 -25 5 -45 10 -45 6 0 10 -7 10 -15 0 -9 6 -12 15 -9 10 4 15 0 15
-15 0 -12 6 -21 16 -21 8 0 42 -27 74 -60 32 -33 64 -60 70 -60 12 0 40 -24
40 -35 0 -13 50 -55 66 -55 9 0 29 -13 44 -30 15 -16 33 -30 40 -30 6 0 8 -4
5 -10 -3 -5 1 -10 10 -10 9 0 34 -18 55 -40 21 -22 43 -40 50 -40 14 0 60 -46
60 -60 0 -5 5 -10 10 -10 20 0 120 -109 120 -130 0 -12 -22 -42 -50 -70 -28
-27 -50 -58 -50 -69 0 -12 -5 -21 -11 -21 -17 0 -38 -32 -39 -57 0 -13 -4 -23
-10 -23 -5 0 -10 -13 -10 -30 0 -16 -4 -30 -10 -30 -5 0 -10 -9 -10 -20 0 -11
-4 -20 -10 -20 -6 0 -10 -27 -10 -61 0 -37 4 -58 10 -54 6 4 10 -10 10 -35 0
-25 4 -39 10 -35 6 3 10 1 10 -5 0 -11 45 -60 55 -60 13 0 75 -70 75 -85 0 -8
7 -15 15 -15 8 0 14 -3 13 -7 -3 -19 16 -43 34 -43 10 0 17 -4 13 -9 -7 -13
90 -111 109 -111 9 0 16 -4 16 -10 0 -5 5 -10 10 -10 11 0 100 -85 100 -95 0
-13 70 -75 85 -75 8 0 15 -8 15 -17 0 -9 3 -13 6 -10 4 3 19 -7 34 -23 16 -17
31 -30 34 -30 8 0 116 -108 116 -115 0 -11 28 -35 40 -35 6 0 30 -20 55 -44
24 -24 53 -47 65 -51 11 -3 18 -11 15 -16 -4 -5 3 -9 14 -9 12 0 21 -4 21 -10
0 -5 9 -10 21 -10 11 0 18 -4 15 -9 -3 -5 1 -11 9 -15 22 -8 18 -49 -5 -66
-11 -8 -20 -23 -20 -33 0 -16 -61 -87 -75 -87 -11 0 -55 -49 -55 -60 0 -6 -22
-33 -50 -60 -27 -27 -50 -56 -50 -65 0 -9 -18 -34 -40 -55 -22 -21 -40 -44
-40 -50 0 -12 -24 -40 -35 -40 -10 0 -115 -109 -115 -120 0 -5 -5 -10 -11 -10
-5 0 -8 -4 -4 -9 3 -6 -15 -30 -40 -55 -25 -25 -45 -52 -45 -61 0 -8 -4 -15
-10 -15 -5 0 -10 -9 -10 -21 0 -11 -4 -17 -10 -14 -5 3 -10 -1 -10 -9 0 -9 -5
-16 -11 -16 -16 0 -39 -26 -39 -44 0 -9 -4 -16 -10 -16 -5 0 -10 -7 -10 -15 0
-8 -4 -15 -10 -15 -5 0 -10 -7 -10 -15 0 -9 -9 -25 -20 -37 -11 -12 -20 -30
-20 -40 0 -11 -4 -16 -10 -13 -6 4 -10 -7 -10 -24 0 -17 -4 -31 -10 -31 -5 0
-10 -9 -10 -20 0 -11 -4 -20 -10 -20 -5 0 -10 -9 -10 -20 0 -11 -4 -20 -10
-20 -5 0 -10 -11 -10 -25 0 -14 -4 -25 -10 -25 -5 0 -10 -18 -10 -40 0 -22 -4
-40 -10 -40 -6 0 -10 -48 -10 -125 0 -77 4 -125 10 -125 6 0 10 -18 10 -40 0
-22 5 -40 10 -40 6 0 10 -13 10 -30 0 -16 5 -30 10 -30 6 0 10 -9 10 -20 0
-11 5 -20 10 -20 6 0 10 -8 10 -19 0 -10 14 -32 30 -49 17 -18 30 -37 30 -42
0 -19 69 -80 90 -80 11 0 20 -4 20 -10 0 -5 9 -10 20 -10 11 0 20 -4 20 -10 0
-5 9 -10 20 -10 11 0 20 -4 20 -10 0 -5 18 -10 40 -10 22 0 40 -4 40 -10 0 -6
32 -10 75 -10 43 0 75 4 75 10 0 6 14 10 30 10 17 0 30 5 30 10 0 6 7 10 15
10 20 0 125 105 125 125 0 8 7 15 15 15 8 0 15 9 15 20 0 11 5 20 10 20 6 0
10 11 10 25 0 14 5 25 10 25 6 0 10 55 10 145 0 90 4 145 10 145 6 0 10 11 10
25 0 28 99 135 125 135 8 0 15 7 15 15 0 9 8 19 18 22 9 4 24 15 33 25 9 10
21 18 28 18 6 0 11 6 11 13 0 7 9 19 20 27 11 8 20 20 20 28 0 7 5 10 10 7 6
-3 10 3 10 14 0 12 5 21 10 21 6 0 10 9 10 20 0 11 5 20 10 20 6 0 10 23 10
50 0 28 -4 50 -10 50 -6 0 -10 30 -10 71 0 44 -4 68 -10 64 -6 -4 -10 12 -10
39 0 25 5 46 10 46 6 0 10 20 10 45 0 25 5 45 10 45 6 0 10 5 10 10 0 13 147
160 160 160 5 0 10 -4 10 -10 0 -5 6 -10 14 -10 13 0 146 -122 146 -135 0 -13
71 -75 87 -76 10 0 13 -3 6 -6 -17 -6 9 -33 31 -33 17 0 186 -163 186 -179 0
-5 14 -14 30 -21 17 -7 30 -16 30 -21 0 -5 5 -9 11 -9 6 0 24 -13 39 -30 15
-16 33 -30 40 -30 6 0 29 -18 50 -40 21 -22 43 -40 50 -40 14 0 80 -66 80 -80
0 -5 7 -10 15 -10 8 0 15 -4 15 -10 0 -5 7 -10 16 -10 8 0 33 -18 54 -40 21
-22 43 -40 50 -40 14 0 80 -66 80 -80 0 -17 26 -40 44 -40 9 0 16 5 16 10 0 6
16 10 35 10 19 0 35 5 35 10 0 6 7 10 16 10 8 0 12 5 9 10 -4 6 5 10 20 10 15
0 24 4 20 10 -3 6 3 10 14 10 10 0 21 6 23 12 3 8 26 -9 56 -40 28 -28 54 -52
57 -52 12 0 35 -29 35 -44 0 -15 222 -246 236 -246 7 0 34 -27 34 -35 0 -3 27
-33 60 -65 33 -32 60 -66 60 -74 0 -9 5 -16 10 -16 6 0 10 -9 10 -20 0 -15 7
-20 28 -20 16 0 34 8 42 20 8 11 23 20 33 20 19 0 87 62 87 80 0 6 9 20 20 32
11 12 20 30 20 40 0 10 5 18 10 18 6 0 10 21 10 46 0 44 -16 74 -40 74 -6 0
-29 18 -50 40 -21 22 -41 40 -45 40 -10 0 -75 69 -75 80 0 5 -9 10 -21 10 -11
0 -17 5 -14 10 3 6 1 10 -5 10 -6 0 -46 36 -90 80 -44 44 -87 80 -96 80 -9 0
-29 14 -44 30 -15 17 -35 30 -44 30 -9 0 -16 5 -16 11 0 6 -15 25 -32 42 -21
19 -28 32 -20 34 6 3 12 11 12 20 0 8 14 28 30 43 18 17 30 38 30 54 0 14 5
26 10 26 17 0 12 119 -5 137 -8 8 -12 19 -9 25 4 7 2 8 -4 4 -7 -4 -12 -1 -12
8 0 9 -4 16 -10 16 -5 0 -10 7 -10 16 0 9 -13 29 -30 44 -16 15 -30 34 -30 42
0 7 -9 20 -20 28 -11 8 -20 20 -20 27 0 7 -4 13 -10 13 -5 0 -10 9 -10 20 0
11 -5 20 -11 20 -14 0 -39 26 -39 40 0 7 -13 25 -30 40 -16 15 -30 35 -30 44
0 9 -4 16 -10 16 -23 0 -8 36 20 48 17 8 30 18 30 24 0 16 27 38 47 38 10 0
25 9 33 20 8 11 22 20 32 20 10 0 18 4 18 9 0 5 9 13 20 16 11 4 32 17 45 31
13 13 29 24 35 24 16 0 60 47 60 64 0 8 6 17 13 20 10 5 10 7 0 12 -7 3 -13
21 -13 40 0 19 -4 34 -10 34 -5 0 -10 18 -10 40 0 33 3 40 20 40 11 0 20 -4
20 -10 0 -5 7 -10 15 -10 8 0 15 -4 15 -10 0 -5 9 -10 20 -10 13 0 20 -7 20
-20 0 -16 7 -20 36 -20 35 0 64 18 64 40 0 6 27 38 60 70 33 32 60 66 60 74 0
9 5 16 11 16 11 0 39 24 39 34 0 3 36 42 80 87 44 44 80 86 80 92 0 7 9 19 20
27 11 8 20 22 20 32 0 10 5 18 10 18 6 0 10 7 10 15 0 8 5 15 11 15 14 0 59
50 59 65 0 6 9 17 20 25 11 8 20 23 20 33 0 10 5 15 10 12 6 -3 10 0 10 7 0 8
9 20 20 28 11 8 20 21 20 30 0 9 9 22 20 30 11 8 20 23 20 33 0 11 14 32 30
47 17 15 30 33 30 40 0 14 25 40 39 40 6 0 11 7 11 16 0 9 14 29 30 44 18 17
30 38 30 54 0 14 5 26 10 26 18 0 10 45 -10 60 -11 8 -20 20 -20 28 0 13 -44
62 -56 62 -9 0 -44 41 -44 52 0 4 -8 8 -17 8 -9 0 -14 3 -10 6 7 7 -38 54 -53
54 -5 0 -10 5 -10 10 0 14 -86 100 -100 100 -5 0 -10 5 -10 10 0 6 -7 10 -15
10 -8 0 -15 5 -15 10 0 6 -7 10 -15 10 -8 0 -15 5 -15 10 0 6 -7 10 -15 10 -9
0 -25 9 -37 20 -12 11 -28 20 -35 20 -7 0 -13 5 -13 10 0 6 -8 10 -18 10 -10
0 -24 9 -32 20 -8 11 -20 20 -28 20 -16 0 -42 24 -42 39 0 6 -9 11 -21 11 -11
0 -38 18 -59 40 -21 22 -44 40 -50 40 -7 0 -25 14 -40 30 -15 17 -34 30 -42
30 -7 0 -20 9 -28 20 -8 11 -23 20 -33 20 -10 0 -15 5 -12 10 3 6 -1 10 -9 10
-9 0 -16 5 -16 10 0 6 -7 10 -15 10 -8 0 -15 5 -15 10 0 6 -9 10 -20 10 -11 0
-20 5 -20 10 0 15 -46 60 -61 60 -6 0 -24 14 -39 30 -15 17 -33 30 -40 30 -7
0 -25 14 -40 30 -15 17 -37 30 -49 30 -12 0 -21 5 -21 10 0 6 -13 10 -30 10
-16 0 -30 5 -30 10 0 6 -9 10 -20 10 -11 0 -20 5 -20 10 0 6 -9 10 -20 10 -11
0 -20 -4 -20 -10 0 -5 -7 -10 -15 -10 -9 0 -19 -8 -22 -17 -9 -23 -49 -63 -63
-63 -5 0 -10 -9 -10 -20 0 -11 -4 -20 -10 -20 -5 0 -10 -7 -10 -16 0 -9 -13
-29 -30 -44 -16 -15 -30 -37 -30 -49 0 -12 -4 -21 -10 -21 -5 0 -10 -8 -10
-18 0 -10 -9 -24 -20 -32 -11 -8 -20 -22 -20 -32 0 -10 -4 -18 -10 -18 -5 0
-10 -9 -10 -20 0 -11 -4 -20 -10 -20 -5 0 -10 -8 -10 -18 0 -10 -9 -24 -20
-32 -11 -8 -20 -25 -20 -37 0 -13 -4 -23 -10 -23 -5 0 -10 -8 -10 -18 0 -9
-11 -26 -25 -36 -14 -10 -25 -25 -25 -32 0 -8 -4 -14 -10 -14 -5 0 -10 -8 -10
-18 0 -10 -9 -24 -20 -32 -11 -8 -20 -21 -20 -30 0 -9 -9 -22 -20 -30 -11 -8
-20 -22 -20 -32 0 -10 -4 -18 -10 -18 -5 0 -10 -6 -10 -13 0 -7 -9 -19 -20
-27 -11 -8 -20 -22 -20 -32 0 -10 -4 -18 -10 -18 -5 0 -10 -7 -10 -16 0 -9
-13 -29 -30 -44 -16 -15 -30 -35 -30 -44 0 -9 -5 -16 -11 -16 -16 0 -39 -26
-39 -44 0 -9 -4 -16 -10 -16 -5 0 -10 -7 -10 -15 0 -8 -4 -15 -10 -15 -5 0
-10 -7 -10 -16 0 -9 -5 -12 -12 -8 -6 4 -8 3 -4 -4 3 -6 -5 -22 -19 -36 -14
-14 -25 -31 -25 -38 0 -8 -9 -20 -20 -28 -11 -8 -20 -19 -20 -25 0 -6 -15 -28
-34 -48 -39 -43 -84 -51 -93 -17 -3 11 -12 20 -21 20 -15 0 -62 48 -62 63 0 4
-31 39 -70 77 -38 38 -70 72 -70 75 0 10 -28 35 -39 35 -6 0 -11 6 -11 14 0 8
-9 18 -20 21 -11 3 -20 13 -20 21 0 8 -36 50 -80 94 -44 44 -80 82 -80 85 0 8
-47 55 -55 55 -13 0 -115 111 -115 125 0 8 -7 15 -17 15 -9 0 -14 3 -10 6 3 4
-12 24 -33 44 -22 21 -40 48 -40 59 0 12 -6 21 -16 21 -9 0 -12 5 -8 12 4 6 3
8 -4 4 -6 -3 -17 1 -25 9 -9 8 -18 15 -22 15 -10 0 -75 69 -75 80 0 24 -30 40
-74 40 -25 0 -46 -4 -46 -10 0 -5 -20 -10 -45 -10 -25 0 -45 -4 -45 -10 0 -5
-9 -10 -20 -10 -11 0 -20 -4 -20 -10 0 -5 -9 -10 -20 -10 -11 0 -20 -4 -20
-10 0 -5 -8 -10 -18 -10 -10 0 -24 -9 -32 -20 -8 -11 -21 -20 -30 -20 -9 0
-22 -9 -30 -20 -15 -21 -45 -27 -55 -10 -3 6 -13 10 -21 10 -18 0 -64 44 -64
61 0 6 -13 24 -30 39 -16 15 -30 33 -30 40 0 7 -13 25 -30 40 -16 15 -30 36
-30 47 0 10 -9 25 -20 33 -11 8 -20 20 -20 28 0 15 -45 62 -60 62 -5 0 -10 8
-10 18 0 10 -9 24 -20 32 -11 8 -20 22 -20 32 0 10 -4 18 -10 18 -5 0 -10 10
-10 23 0 12 -9 29 -20 37 -11 8 -20 21 -20 30 0 9 -9 22 -20 30 -11 8 -20 21
-20 30 0 9 -9 22 -20 30 -11 8 -20 22 -20 32 0 10 -4 18 -10 18 -5 0 -10 9
-10 20 0 16 -7 20 -35 20 -19 0 -35 5 -35 10 0 6 -9 10 -20 10 -11 0 -20 -4
-20 -10z m20 -78 c0 -16 -8 -34 -20 -42 -11 -8 -20 -20 -20 -27 0 -7 -4 -13
-10 -13 -5 0 -20 -11 -34 -25 -14 -14 -30 -25 -36 -25 -14 0 -40 -25 -40 -39
0 -6 -9 -11 -20 -11 -11 0 -20 -4 -20 -10 0 -5 -9 -10 -20 -10 -17 0 -20 7
-20 41 0 33 6 47 30 69 17 15 30 33 30 40 0 14 21 34 40 38 8 2 17 8 18 13 2
5 12 9 23 9 10 0 19 5 19 10 0 6 18 10 40 10 37 0 40 -2 40 -28z m85 -37 c14
-13 25 -30 25 -37 0 -8 9 -20 20 -28 11 -8 20 -22 20 -32 0 -10 5 -18 10 -18
6 0 10 -10 10 -23 0 -12 9 -29 20 -37 11 -8 20 -21 20 -30 0 -9 9 -22 20 -30
11 -8 20 -21 20 -30 0 -9 9 -22 20 -30 11 -8 20 -22 20 -32 0 -10 5 -18 11
-18 16 0 39 -26 39 -45 0 -9 14 -30 30 -45 17 -15 30 -34 30 -42 0 -7 9 -20
20 -28 11 -8 20 -22 20 -32 0 -16 11 -23 33 -19 5 1 6 -3 3 -8 -4 -5 5 -21 19
-35 14 -14 25 -32 25 -41 0 -8 9 -15 20 -15 11 0 20 -7 20 -15 0 -9 9 -15 25
-15 14 0 25 -4 25 -10 0 -5 9 -10 20 -10 11 0 20 -4 20 -10 0 -5 7 -10 16 -10
22 0 53 -32 36 -38 -6 -2 -12 -15 -12 -28 0 -37 -81 -114 -120 -114 -27 0 -30
3 -30 30 0 17 -4 30 -10 30 -5 0 -10 7 -10 16 0 9 -13 29 -30 44 -16 15 -30
35 -30 44 0 9 -7 16 -15 16 -23 0 -68 48 -61 66 3 8 1 12 -4 9 -11 -7 -65 43
-56 52 3 4 14 -4 25 -15 10 -12 24 -22 30 -22 15 0 41 -25 41 -39 0 -6 9 -11
20 -11 11 0 20 -4 20 -10 0 -5 9 -10 19 -10 11 0 21 -6 24 -12 2 -7 8 -10 12
-6 5 5 -2 16 -13 27 -12 10 -22 22 -22 26 0 10 -91 95 -103 95 -5 0 -22 14
-37 30 -15 17 -31 30 -35 30 -4 0 -24 18 -45 40 -21 22 -44 40 -50 40 -12 0
-40 24 -40 35 0 12 -28 35 -42 35 -8 0 -20 9 -28 20 -8 11 -22 20 -32 20 -10
0 -18 5 -18 10 0 6 -7 10 -15 10 -8 0 -15 9 -15 20 0 12 -7 20 -16 20 -9 0
-28 13 -42 28 -26 28 -82 48 -82 30 0 -9 146 -158 156 -158 9 0 34 -28 34 -39
0 -6 7 -11 16 -11 17 0 49 -28 41 -36 -12 -12 -77 35 -77 55 0 6 -6 11 -13 11
-7 0 -19 9 -27 20 -8 11 -20 20 -28 20 -7 0 -35 23 -62 50 -27 28 -54 50 -60
50 -15 0 -40 25 -40 40 0 16 47 60 65 60 8 0 15 5 15 10 0 14 46 60 60 60 16
0 60 47 60 65 0 8 7 15 15 15 8 0 15 5 15 10 0 16 9 12 35 -15z m2925 -255 c0
-5 8 -10 18 -10 10 0 24 -9 32 -20 8 -11 23 -20 33 -20 11 0 32 -13 47 -30 15
-16 33 -30 40 -30 14 0 40 -25 40 -38 0 -5 12 -15 28 -23 15 -8 34 -22 43 -31
9 -10 24 -18 33 -18 9 0 16 -4 16 -10 0 -5 6 -10 13 -10 7 0 19 -9 27 -20 8
-11 21 -20 28 -20 8 0 26 -13 42 -30 15 -16 33 -30 41 -32 17 -4 79 -64 79
-78 0 -5 8 -10 18 -10 10 0 24 -9 32 -20 8 -11 20 -20 27 -20 7 0 13 -4 13
-10 0 -5 7 -10 15 -10 9 0 27 -11 41 -25 14 -14 29 -23 33 -21 4 3 14 -4 21
-15 8 -10 20 -19 28 -19 19 0 62 -46 62 -67 0 -33 -28 -97 -54 -125 -14 -16
-26 -38 -26 -49 0 -11 -4 -17 -10 -14 -5 3 -10 -2 -10 -12 0 -10 -9 -25 -20
-33 -11 -8 -20 -22 -20 -32 0 -10 -4 -18 -10 -18 -5 0 -10 -9 -10 -20 0 -11
-4 -20 -10 -20 -5 0 -10 -7 -10 -15 0 -8 -4 -15 -10 -15 -5 0 -9 -3 -9 -7 3
-21 -2 -33 -16 -33 -8 0 -15 -9 -15 -20 0 -11 -3 -20 -7 -20 -5 0 -13 -11 -19
-24 -9 -20 -9 -23 8 -18 10 2 18 13 18 23 0 11 5 19 11 19 15 0 39 26 39 42 0
8 9 20 20 28 11 8 20 24 20 35 0 11 9 27 20 35 11 8 20 21 20 30 0 9 9 22 20
30 11 8 20 21 20 30 0 9 9 22 20 30 11 8 20 22 20 32 0 10 5 18 10 18 6 0 10
9 10 20 0 11 5 20 10 20 6 0 10 5 10 11 0 16 26 39 45 39 16 0 45 -22 45 -35
0 -10 28 -35 39 -35 18 0 181 -167 181 -184 0 -9 5 -16 11 -16 14 0 39 -25 39
-39 0 -6 -4 -11 -10 -11 -5 0 -10 -9 -10 -20 0 -11 -7 -20 -15 -20 -8 0 -15
-7 -15 -16 0 -9 -8 -24 -18 -33 -9 -9 -23 -28 -31 -43 -8 -16 -18 -28 -23 -28
-4 0 -8 -7 -8 -16 0 -9 -13 -29 -30 -44 -16 -15 -30 -36 -30 -45 0 -9 -13 -30
-30 -45 -16 -15 -30 -34 -30 -42 0 -7 -9 -20 -20 -28 -11 -8 -20 -20 -20 -28
0 -14 -23 -42 -35 -42 -12 0 -35 -28 -35 -42 0 -8 -9 -20 -20 -28 -11 -8 -20
-18 -20 -23 0 -5 -18 -26 -40 -47 -22 -21 -40 -43 -40 -49 0 -12 -105 -121
-115 -121 -10 0 -29 -23 -45 -54 -8 -16 -48 -63 -88 -103 l-72 -75 -29 31
c-16 17 -37 31 -48 31 -10 0 -25 9 -33 20 -10 14 -26 20 -52 20 -31 0 -38 -4
-38 -20 0 -11 5 -20 10 -20 6 0 10 -22 10 -50 0 -27 5 -50 10 -50 6 0 10 -20
10 -44 0 -26 5 -46 12 -48 15 -5 -13 -38 -32 -38 -7 0 -25 -13 -40 -30 -15
-16 -34 -30 -42 -30 -7 0 -20 -9 -28 -20 -8 -11 -22 -20 -32 -20 -10 0 -18 -4
-18 -10 0 -5 -11 -10 -25 -10 -14 0 -25 -4 -25 -10 0 -5 -8 -10 -18 -10 -10 0
-24 -9 -32 -20 -8 -11 -20 -20 -28 -20 -7 0 -10 -4 -7 -10 3 -5 -3 -10 -14
-10 -12 0 -21 -7 -21 -15 0 -8 -8 -15 -18 -15 -10 0 -24 -9 -32 -20 -8 -11
-22 -20 -32 -20 -10 0 -18 -4 -18 -10 0 -5 -11 -10 -25 -10 -14 0 -25 -4 -25
-10 0 -5 -8 -10 -18 -10 -10 0 -24 -9 -32 -20 -8 -11 -22 -20 -32 -20 -10 0
-18 -4 -18 -10 0 -5 -9 -10 -20 -10 -11 0 -20 -4 -20 -10 0 -5 -9 -10 -20 -10
-11 0 -20 -4 -20 -10 0 -5 -9 -10 -20 -10 -11 0 -20 -4 -20 -10 0 -5 -11 -10
-25 -10 -14 0 -25 -4 -25 -10 0 -5 -9 -10 -20 -10 -11 0 -20 -4 -20 -10 0 -5
-9 -10 -20 -10 -11 0 -20 -7 -20 -15 0 -10 -10 -15 -30 -15 -29 0 -30 2 -30
45 0 25 -4 45 -10 45 -5 0 -10 14 -10 30 0 17 -4 30 -10 30 -15 0 -12 49 4 66
20 19 26 18 26 -6 0 -11 5 -20 10 -20 6 0 10 -18 10 -39 0 -22 5 -42 13 -44 9
-4 9 -8 -2 -15 -12 -9 -11 -13 4 -29 13 -13 20 -14 23 -5 2 6 17 12 33 12 16
0 29 5 29 10 0 6 9 10 21 10 12 0 34 14 49 30 15 17 34 30 42 30 7 0 20 9 28
20 8 11 21 20 28 20 8 0 27 14 42 30 15 17 33 30 40 30 14 0 40 25 40 39 0 6
10 11 23 11 12 0 29 9 37 20 8 11 21 20 28 20 8 0 27 14 42 30 15 17 35 30 44
30 9 0 16 5 16 10 0 6 7 10 16 10 8 0 33 18 54 40 21 22 41 40 45 40 10 0 55
48 55 60 0 5 -9 10 -20 10 -11 0 -20 -7 -20 -15 0 -8 -7 -15 -15 -15 -8 0 -15
-4 -15 -10 0 -5 -9 -10 -20 -10 -11 0 -20 -4 -20 -10 0 -5 -8 -10 -18 -10 -10
0 -24 -9 -32 -20 -8 -11 -22 -20 -32 -20 -10 0 -18 -4 -18 -10 0 -5 -9 -10
-20 -10 -11 0 -20 -4 -20 -10 0 -5 -8 -10 -18 -10 -10 0 -24 -9 -32 -20 -8
-11 -25 -20 -37 -20 -13 0 -23 -4 -23 -9 0 -5 -9 -13 -20 -16 -11 -4 -32 -17
-45 -31 -13 -13 -32 -24 -41 -24 -10 0 -14 -5 -10 -15 3 -8 0 -15 -7 -15 -7 0
-19 -9 -27 -20 -8 -11 -21 -20 -30 -20 -9 0 -22 -9 -30 -20 -8 -11 -24 -20
-35 -20 -11 0 -27 -9 -35 -20 -8 -11 -22 -20 -32 -20 -10 0 -18 -4 -18 -10 0
-5 -4 -10 -10 -10 -5 0 -10 23 -10 50 0 28 -4 50 -10 50 -5 0 -10 9 -10 20 0
11 5 20 10 20 6 0 10 5 10 11 0 15 26 39 42 39 8 0 20 9 28 20 8 11 24 20 35
20 11 0 27 9 35 20 8 11 20 20 28 20 7 0 40 27 72 60 32 33 64 60 70 60 6 0
18 7 26 15 9 8 12 15 8 15 -4 0 2 9 14 20 12 11 24 20 27 20 10 0 255 250 255
260 0 5 5 10 11 10 13 0 33 20 42 43 3 9 13 17 20 17 7 0 20 12 28 28 8 15 44
57 82 94 37 37 67 74 67 83 0 16 23 45 35 45 4 0 13 6 21 14 16 17 19 46 4 46
-5 0 -10 -4 -10 -10 0 -5 -7 -10 -15 -10 -8 0 -15 -9 -15 -20 0 -11 -7 -20
-15 -20 -20 0 -71 -50 -53 -51 10 0 10 -2 1 -6 -7 -2 -13 -9 -13 -15 0 -15
-27 -38 -44 -38 -9 0 -16 -7 -16 -15 0 -14 -102 -125 -115 -125 -7 0 -75 -68
-75 -75 0 -7 -188 -195 -195 -195 -8 0 -95 -88 -95 -95 0 -11 -28 -35 -40 -35
-6 0 -29 -18 -50 -40 -21 -22 -45 -40 -52 -40 -7 0 -20 -9 -28 -20 -8 -11 -20
-20 -27 -20 -7 0 -13 -4 -13 -10 0 -5 -8 -10 -18 -10 -10 0 -24 -9 -32 -20 -8
-12 -26 -20 -42 -20 -25 0 -28 3 -28 34 0 19 -4 38 -10 41 -5 3 -10 15 -10 26
0 10 -4 19 -10 19 -5 0 -10 9 -10 20 0 11 -4 20 -10 20 -5 0 -10 9 -10 20 0
11 -4 20 -10 20 -5 0 -10 9 -10 20 0 20 -41 70 -57 70 -5 0 -15 9 -23 20 -8
12 -26 20 -42 20 -15 0 -28 5 -28 10 0 6 -9 10 -20 10 -11 0 -20 5 -20 10 0 6
-13 10 -30 10 -16 0 -30 5 -30 10 0 6 -13 10 -30 10 -16 0 -30 -4 -30 -10 0
-6 -28 -10 -65 -10 -37 0 -65 -4 -65 -10 0 -5 -9 -10 -20 -10 -11 0 -20 -4
-20 -10 0 -5 9 -10 20 -10 11 0 20 5 20 10 0 6 42 10 105 10 63 0 105 -4 105
-10 0 -5 9 -10 20 -10 11 0 20 -4 20 -10 0 -5 9 -10 20 -10 11 0 20 -4 20 -10
0 -5 7 -10 16 -10 20 0 44 -24 44 -44 0 -9 5 -16 10 -16 6 0 10 -11 10 -25 0
-14 5 -25 11 -25 18 0 39 -28 39 -52 0 -13 9 -30 20 -38 11 -8 20 -22 20 -32
0 -10 5 -18 10 -18 6 0 10 -25 10 -55 0 -48 -2 -55 -20 -55 -16 0 -20 7 -20
31 0 17 -4 28 -10 24 -6 -4 -10 10 -10 35 0 25 -4 39 -10 35 -6 -4 -10 5 -10
19 0 16 -6 26 -15 26 -8 0 -15 9 -15 20 0 11 -4 20 -10 20 -5 0 -10 8 -10 18
0 10 -9 24 -20 32 -11 8 -20 25 -20 37 0 17 -6 23 -21 23 -11 0 -17 5 -14 10
3 6 -1 10 -9 10 -9 0 -16 5 -16 10 0 6 -9 10 -20 10 -11 0 -20 5 -20 10 0 6
-18 10 -40 10 -22 0 -40 5 -40 10 0 6 -20 10 -45 10 -25 0 -45 -4 -45 -10 0
-5 -13 -10 -30 -10 -16 0 -30 -4 -30 -10 0 -5 -7 -10 -16 -10 -9 0 -24 -8 -33
-18 -9 -9 -28 -23 -43 -31 -16 -8 -28 -20 -28 -28 0 -7 -4 -13 -10 -13 -5 0
-10 7 -10 15 0 8 -5 15 -11 15 -14 0 -39 26 -39 40 0 6 -24 34 -52 62 -31 30
-48 53 -40 56 6 2 12 10 12 19 0 8 14 28 31 44 18 17 25 29 18 30 -11 0 -11 2
-1 6 6 2 12 10 12 17 0 6 9 18 20 26 11 8 20 19 20 25 0 6 16 24 35 40 19 17
35 36 35 43 0 7 5 10 10 7 6 -3 10 1 10 10 0 10 14 30 30 45 17 15 30 35 30
44 0 9 5 16 10 16 6 0 10 6 10 13 0 7 9 19 20 27 11 8 20 21 20 28 0 8 14 27
30 42 17 15 30 33 30 40 0 14 25 40 39 40 6 0 11 7 11 16 0 9 14 29 30 44 17
15 30 33 30 39 0 6 5 11 10 11 6 0 10 8 10 18 0 10 9 24 20 32 11 8 20 21 20
30 0 9 9 22 20 30 11 8 20 21 20 28 0 8 14 27 30 42 17 15 30 35 30 44 0 9 5
16 10 16 6 0 10 11 10 25 0 14 5 25 10 25 15 0 80 67 80 82 0 8 9 20 20 28 11
8 20 21 20 30 0 9 9 22 20 30 11 8 20 21 20 30 0 9 9 22 20 30 11 8 20 20 20
27 0 7 5 13 10 13 6 0 10 11 10 25 0 26 39 75 60 75 5 0 10 9 10 20 0 11 5 20
10 20 6 0 10 9 10 20 0 11 5 20 10 20 6 0 10 9 10 20 0 11 4 20 8 20 5 0 14
16 22 35 8 19 17 35 22 35 4 0 8 9 8 20 0 11 5 20 10 20 6 0 10 7 10 16 0 8 5
12 10 9 6 -3 10 3 10 14 0 12 5 21 10 21 6 0 10 8 10 18 0 10 9 24 20 32 11 8
20 21 20 30 0 9 9 22 20 30 11 8 20 25 20 37 0 13 5 23 10 23 6 0 10 9 10 20
0 11 5 20 11 20 14 0 39 26 39 40 0 6 10 22 23 35 18 20 32 24 80 24 32 1 57
-3 57 -9z m-2820 -250 c0 -5 -4 -10 -10 -10 -5 0 -10 5 -10 10 0 6 5 10 10 10
6 0 10 -4 10 -10z m60 -40 c24 -23 40 -43 37 -47 -6 -5 -87 73 -87 83 0 9 11
2 50 -36z m730 -20 c0 -16 -4 -30 -10 -30 -5 0 -10 -13 -10 -30 0 -16 -4 -30
-10 -30 -5 0 -10 -11 -10 -25 0 -14 -4 -25 -10 -25 -5 0 -10 -8 -10 -18 0 -10
-9 -24 -20 -32 -11 -8 -20 -22 -20 -32 0 -10 -5 -18 -10 -18 -10 0 -160 -145
-160 -155 0 -13 -111 -115 -126 -115 -9 0 -18 -9 -21 -20 -3 -11 -12 -20 -20
-20 -8 0 -32 -18 -53 -40 -21 -22 -44 -40 -50 -40 -6 0 -8 -4 -5 -10 4 -6 -7
-10 -24 -10 -17 0 -31 -5 -31 -11 0 -21 -29 -39 -65 -39 -20 0 -43 6 -51 14
-16 17 -19 82 -4 91 6 3 10 15 10 26 0 10 5 19 10 19 6 0 10 9 10 20 0 11 7
20 15 20 8 0 15 9 15 20 0 11 5 20 10 20 6 0 10 9 10 20 0 11 5 20 10 20 6 0
10 9 10 20 0 17 100 130 115 130 3 0 5 -9 5 -20 0 -11 5 -20 10 -20 6 0 10 -8
10 -18 0 -10 9 -24 20 -32 11 -8 20 -20 20 -27 0 -8 13 -13 35 -13 24 0 35 5
35 15 0 8 7 15 15 15 20 0 85 65 85 85 0 8 5 15 10 15 6 0 10 9 10 20 0 11 5
20 10 20 6 0 10 9 10 20 0 11 5 20 10 20 6 0 10 14 10 30 0 27 -9 35 -33 31
-5 -1 -6 3 -2 9 3 5 -1 10 -9 10 -20 0 -21 36 -2 56 8 8 22 14 30 14 9 0 16 5
16 10 0 6 9 10 20 10 11 0 20 5 20 10 0 6 9 10 20 10 11 0 20 5 20 10 0 6 14
10 31 10 17 0 28 4 24 10 -4 6 10 10 34 10 39 0 41 -2 41 -30z m94 -33 c12
-12 29 -37 37 -55 7 -17 17 -32 22 -32 13 0 228 -221 223 -229 -3 -4 4 -14 15
-21 10 -8 19 -18 19 -23 0 -16 28 -37 49 -37 12 0 21 -6 21 -15 0 -9 45 -60
100 -115 55 -55 100 -102 100 -105 0 -8 27 -35 35 -35 10 0 55 -48 55 -60 0
-6 41 -51 90 -100 50 -49 90 -94 90 -100 0 -5 5 -10 10 -10 6 0 10 -12 10 -26
0 -17 -14 -39 -40 -64 -22 -21 -40 -46 -40 -54 0 -9 -4 -16 -10 -16 -5 0 -10
-9 -10 -21 0 -11 -4 -17 -10 -14 -5 3 -10 0 -10 -7 0 -8 -9 -20 -20 -28 -11
-8 -20 -23 -20 -33 0 -10 -18 -36 -40 -57 -22 -21 -40 -43 -40 -49 0 -5 -5
-13 -12 -17 -7 -5 -8 -3 -3 6 5 9 4 11 -3 6 -7 -4 -12 -12 -12 -17 0 -6 -7
-17 -15 -26 -8 -8 -12 -19 -9 -25 4 -7 2 -8 -4 -4 -7 4 -12 1 -12 -6 0 -8 -9
-20 -20 -28 -11 -8 -20 -23 -20 -33 0 -10 -16 -33 -35 -52 -26 -26 -43 -35
-69 -35 -19 0 -37 6 -40 13 -5 10 -7 10 -12 0 -3 -7 -12 -13 -20 -13 -8 0 -14
-4 -14 -10 0 -23 -33 -7 -75 35 -25 24 -45 47 -45 50 0 11 -28 35 -40 35 -7 0
-25 14 -40 30 -15 17 -35 30 -44 30 -9 0 -16 8 -16 20 0 14 -7 20 -21 20 -11
0 -45 25 -79 60 -32 33 -66 60 -74 60 -9 0 -16 5 -16 10 0 17 -68 80 -85 80
-9 0 -38 23 -65 50 -27 28 -54 50 -60 50 -11 0 -100 85 -100 95 0 14 -30 35
-49 35 -12 0 -21 5 -21 10 0 6 -9 10 -19 10 -11 0 -21 6 -24 13 -2 6 -8 9 -12
4 -5 -4 6 -19 23 -34 18 -14 32 -32 32 -39 0 -8 5 -14 10 -14 6 0 55 -45 110
-100 55 -55 105 -100 112 -100 8 0 20 -9 28 -20 8 -11 20 -20 27 -20 7 0 13
-5 13 -10 0 -6 32 -42 70 -80 39 -38 70 -74 70 -81 0 -14 60 -70 69 -64 4 2
14 -5 21 -16 8 -10 20 -19 27 -19 7 0 13 -7 13 -15 0 -8 8 -15 18 -15 10 0 24
-9 32 -20 8 -11 22 -20 32 -20 10 0 18 -4 18 -10 0 -5 9 -10 19 -10 11 0 21
-4 23 -10 2 -5 15 -11 30 -12 15 -1 24 -6 22 -10 -3 -4 2 -8 10 -8 9 0 16 -4
16 -10 0 -5 -9 -10 -20 -10 -11 0 -19 -3 -19 -7 7 -42 -23 -43 -61 -3 -15 17
-33 30 -40 30 -6 0 -29 18 -50 40 -21 22 -41 40 -45 40 -10 0 -35 28 -35 39 0
6 -6 11 -14 11 -8 0 -46 32 -85 70 -39 39 -77 70 -84 70 -7 0 -19 9 -27 20 -8
11 -18 20 -23 20 -9 0 -77 66 -77 75 0 12 -130 135 -143 135 -7 0 -19 9 -27
20 -8 11 -18 20 -22 20 -10 0 -98 86 -98 95 0 3 -40 46 -90 95 -90 89 -108
120 -70 120 11 0 20 5 20 10 0 6 9 10 20 10 11 0 20 5 20 10 0 6 9 10 20 10
11 0 20 5 20 10 0 6 9 10 20 10 11 0 20 5 20 11 0 14 26 39 40 39 7 0 25 14
40 30 15 17 32 30 37 30 5 0 15 9 23 19 7 11 17 18 21 15 8 -5 149 130 149
143 0 5 9 15 20 23 11 8 20 20 20 28 0 14 23 42 35 42 12 0 55 50 55 65 0 8 5
15 10 15 6 0 10 9 10 20 0 11 5 20 10 20 6 0 10 6 10 13 0 7 9 23 20 35 11 12
20 35 20 52 0 16 5 30 10 30 6 0 10 9 10 20 0 27 25 25 54 -3z m426 -1607 c15
-16 33 -30 39 -30 18 0 61 -47 61 -65 0 -9 5 -13 10 -10 6 3 10 -1 10 -9 0 -9
5 -16 10 -16 6 0 10 -6 10 -13 0 -7 9 -19 20 -27 11 -8 20 -22 20 -32 0 -10 5
-18 11 -18 26 0 39 -30 39 -94 0 -37 -4 -66 -10 -66 -5 0 -10 -16 -10 -35 0
-19 -5 -35 -10 -35 -14 0 -140 -127 -140 -141 0 -16 -26 -39 -44 -39 -9 0 -16
-8 -16 -20 0 -11 -4 -20 -10 -20 -5 0 -10 -11 -10 -25 0 -14 -4 -25 -10 -25
-6 0 -10 -47 -10 -120 0 -73 4 -120 10 -120 6 0 10 -34 10 -83 0 -71 -3 -85
-20 -97 -11 -8 -20 -22 -20 -32 0 -10 -5 -18 -10 -18 -14 0 -60 -46 -60 -60 0
-5 -7 -10 -16 -10 -8 0 -33 -18 -54 -40 -20 -21 -40 -36 -44 -33 -3 4 -6 2 -6
-4 0 -6 -18 -29 -40 -52 -22 -22 -40 -48 -40 -56 0 -8 -4 -15 -10 -15 -5 0
-10 -16 -10 -35 0 -24 -5 -35 -15 -35 -8 0 -15 -4 -15 -10 0 -5 7 -10 15 -10
12 0 15 -19 15 -110 0 -91 -3 -110 -15 -110 -9 0 -15 -9 -15 -25 0 -14 -4 -25
-10 -25 -5 0 -10 -7 -10 -16 0 -8 -18 -33 -40 -54 -22 -21 -40 -46 -40 -54 0
-9 -8 -16 -20 -16 -11 0 -20 -4 -20 -10 0 -5 -9 -10 -20 -10 -11 0 -20 -4 -20
-10 0 -5 -15 -10 -34 -10 -19 0 -37 -6 -40 -12 -5 -10 -7 -10 -12 0 -3 7 -25
12 -55 12 -27 0 -49 5 -49 10 0 6 -13 10 -30 10 -16 0 -30 5 -30 10 0 6 -9 10
-20 10 -11 0 -20 5 -20 10 0 6 -9 10 -20 10 -11 0 -20 5 -20 10 0 6 -7 10 -15
10 -8 0 -15 5 -15 11 0 5 -4 7 -10 4 -5 -3 -10 -1 -10 5 0 5 -13 24 -30 42
-19 19 -30 41 -30 59 0 16 -4 29 -10 29 -5 0 -10 9 -10 20 0 11 -4 20 -10 20
-5 0 -10 18 -10 40 0 22 -4 40 -10 40 -5 0 -10 14 -10 30 0 17 -4 30 -10 30
-6 0 -10 45 -10 115 0 70 4 115 10 115 6 0 10 18 10 40 0 22 5 40 10 40 6 0
10 11 10 25 0 14 5 25 10 25 6 0 10 9 10 20 0 11 4 20 9 20 5 0 11 13 14 29 3
16 13 36 22 44 8 9 15 22 15 29 0 8 9 20 20 28 11 8 20 22 20 32 0 10 7 18 15
18 9 0 15 9 15 21 0 12 14 34 30 49 17 15 30 33 30 39 0 6 23 34 50 62 28 28
50 56 50 61 0 5 14 23 30 38 17 16 35 42 41 59 6 17 15 31 21 31 13 0 38 26
38 40 0 6 18 29 40 50 22 21 40 44 40 50 0 7 14 25 30 40 17 15 30 35 30 44 0
18 83 106 100 106 5 0 10 7 10 16 0 8 27 42 60 74 33 32 60 66 60 75 0 9 18
34 40 55 22 21 40 43 40 50 0 6 7 13 15 16 8 4 12 11 8 17 -3 5 -1 7 5 3 6 -3
17 1 25 9 9 8 20 15 26 15 6 0 11 5 11 10 0 20 33 9 60 -20z m540 -100 c0 -5
7 -10 16 -10 15 0 44 -23 44 -35 0 -4 18 -24 40 -45 22 -21 40 -45 40 -52 0
-7 9 -20 20 -28 11 -8 20 -22 20 -32 0 -10 5 -18 10 -18 6 0 10 -18 10 -40 0
-29 4 -40 15 -40 10 0 15 -11 15 -35 0 -19 5 -35 10 -35 6 0 10 -27 10 -60 0
-33 4 -60 10 -60 6 0 10 -18 10 -40 0 -25 5 -40 13 -40 9 0 8 -3 -2 -9 -9 -6
-10 -11 -2 -15 6 -4 11 -25 11 -47 0 -29 4 -39 16 -39 8 0 12 5 9 10 -4 6 11
10 37 10 31 0 39 3 28 10 -12 8 -11 10 8 10 12 0 22 5 22 10 0 6 14 10 30 10
17 0 30 5 30 10 0 6 7 10 15 10 8 0 15 7 15 15 0 8 9 15 20 15 11 0 20 5 20
10 0 6 14 10 30 10 17 0 30 5 30 10 0 6 9 10 20 10 11 0 20 5 20 10 0 6 9 10
20 10 11 0 20 5 20 10 0 6 7 10 16 10 8 0 12 5 9 10 -3 6 3 10 14 10 12 0 21
5 21 10 0 6 11 10 25 10 14 0 25 5 25 10 0 6 9 10 20 10 11 0 20 5 20 10 0 6
9 10 20 10 11 0 20 -5 20 -11 0 -5 5 -7 10 -4 6 3 10 1 10 -5 0 -6 18 -29 40
-50 22 -21 40 -46 40 -54 0 -9 5 -16 10 -16 6 0 10 -10 10 -23 0 -12 9 -29 20
-37 11 -8 20 -22 20 -32 0 -10 5 -18 10 -18 17 0 60 -47 60 -65 0 -8 5 -15 10
-15 6 0 10 -9 10 -20 0 -11 5 -20 10 -20 6 0 10 -8 10 -18 0 -10 9 -24 20 -32
21 -15 29 -80 10 -80 -5 0 -10 -9 -10 -20 0 -11 -4 -20 -10 -20 -5 0 -10 -8
-10 -18 0 -10 -9 -24 -20 -32 -11 -8 -20 -20 -20 -28 0 -15 -45 -62 -60 -62
-5 0 -10 -9 -10 -20 0 -11 -4 -20 -10 -20 -5 0 -10 -5 -10 -10 0 -15 -46 -60
-61 -60 -6 0 -24 -13 -39 -30 -15 -16 -35 -30 -44 -30 -9 0 -16 -4 -16 -10 0
-5 -9 -10 -20 -10 -11 0 -20 -4 -20 -10 0 -5 -16 -10 -35 -10 -19 0 -35 5 -35
10 0 6 -7 10 -16 10 -8 0 -33 18 -54 40 -21 22 -43 40 -50 40 -11 0 -60 45
-60 55 0 12 -29 35 -44 35 -9 0 -16 5 -16 10 0 6 -5 10 -11 10 -6 0 -28 18
-49 40 -21 21 -44 41 -51 42 -13 3 -139 123 -139 134 0 12 -29 34 -45 34 -9 0
-47 32 -85 70 -38 39 -74 70 -80 70 -6 0 -29 18 -50 40 -21 22 -41 40 -45 40
-8 0 -35 27 -35 35 0 10 -28 35 -39 35 -6 0 -45 34 -86 75 -65 65 -75 79 -75
110 0 19 5 35 10 35 6 0 10 11 10 25 0 14 5 25 10 25 6 0 10 25 10 56 0 34 -4
53 -10 49 -6 -4 -10 6 -10 24 0 16 -6 31 -12 34 -8 2 -1 15 20 34 17 17 32 34
32 38 0 12 29 35 44 35 9 0 16 5 16 10 0 6 35 10 85 10 50 0 85 -4 85 -10z
m1120 -1140 c0 -13 46 -60 58 -60 5 0 28 -18 51 -40 22 -22 48 -40 56 -40 8 0
15 -4 15 -10 0 -5 5 -10 11 -10 6 0 31 -22 57 -48 26 -26 55 -51 65 -55 9 -3
17 -14 17 -22 0 -19 23 -45 40 -45 6 0 33 -22 60 -50 27 -27 51 -50 55 -50 3
0 17 -11 30 -25 25 -24 33 -55 15 -55 -19 0 -10 -18 13 -25 13 -4 17 -8 10
-12 -7 -2 -13 -13 -13 -24 0 -20 -41 -69 -57 -69 -5 0 -15 -9 -23 -20 -8 -11
-25 -20 -38 -20 -26 0 -92 61 -92 85 0 8 -9 15 -20 15 -13 0 -20 7 -20 20 0
18 -80 110 -95 110 -8 0 -175 168 -175 176 0 4 -9 14 -19 23 -11 10 -21 24
-23 31 -3 15 -43 60 -53 60 -3 0 -17 11 -31 25 l-25 25 25 25 c14 14 28 25 31
25 10 0 55 49 55 60 0 5 5 10 10 10 6 0 10 -5 10 -10z"/>
<path d="M9523 16175 c-18 -19 -33 -44 -33 -55 0 -11 -5 -20 -11 -20 -16 0
-39 -26 -39 -44 0 -9 -4 -16 -10 -16 -5 0 -10 -9 -10 -20 0 -11 -4 -20 -10
-20 -5 0 -10 -9 -10 -20 0 -11 3 -20 6 -20 11 0 34 29 34 44 0 9 5 16 10 16 6
0 10 11 10 24 0 14 5 28 12 32 7 5 8 3 3 -6 -5 -9 -4 -11 3 -6 7 4 12 13 12
19 0 7 9 19 20 27 11 8 20 20 20 27 0 7 5 13 11 13 5 0 7 5 4 10 -3 6 1 10 9
10 9 0 16 5 16 10 0 6 18 10 40 10 22 0 40 5 40 10 0 6 -21 10 -47 9 -41 0
-53 -5 -80 -34z"/>
<path d="M9640 15980 c-8 -11 -25 -20 -38 -20 -26 0 -72 -41 -72 -65 0 -8 -4
-15 -10 -15 -5 0 -10 -25 -10 -55 0 -30 5 -55 10 -55 6 0 10 -11 10 -25 0 -29
40 -75 65 -75 8 0 15 -4 15 -10 0 -6 32 -10 75 -10 43 0 75 4 75 10 0 6 7 10
15 10 20 0 65 45 65 65 0 8 5 15 10 15 6 0 10 14 10 30 0 17 5 30 10 30 6 0
10 9 10 20 0 11 -4 20 -10 20 -5 0 -10 10 -10 21 0 12 -9 30 -21 40 -11 9 -19
21 -17 26 2 4 -7 12 -19 18 -13 5 -23 13 -23 17 0 5 -16 8 -35 8 -19 0 -35 5
-35 10 0 18 -55 11 -70 -10z m76 -34 c8 -8 14 -22 14 -30 0 -9 7 -16 15 -16
12 0 15 -14 15 -65 0 -53 -3 -63 -15 -59 -10 4 -15 0 -15 -15 0 -30 -43 -71
-75 -71 -14 0 -25 5 -25 11 0 5 -4 8 -9 5 -12 -8 -51 28 -51 48 0 9 -4 16 -10
16 -5 0 -10 25 -10 55 0 30 5 55 10 55 6 0 10 9 10 20 0 13 7 20 20 20 11 0
20 5 20 10 0 6 14 10 30 10 17 0 30 5 30 10 0 15 29 12 46 -4z m104 -82 c0 -8
5 -14 10 -14 6 0 10 -13 10 -30 0 -16 -4 -30 -10 -30 -5 0 -10 -8 -10 -18 0
-10 -9 -24 -20 -32 -11 -8 -20 -21 -20 -30 0 -9 -10 -16 -25 -18 -15 -1 -25 3
-25 12 0 7 11 22 25 32 19 14 25 28 25 56 0 21 5 38 10 38 6 0 10 14 10 31 0
17 4 28 10 24 6 -3 10 -13 10 -21z"/>
<path d="M9373 15945 c-7 -8 -13 -26 -13 -40 0 -14 -4 -25 -10 -25 -5 0 -10
-7 -10 -15 0 -8 -4 -15 -10 -15 -5 0 -10 -9 -10 -20 0 -11 -6 -20 -12 -20 -7
0 -5 -5 5 -11 20 -12 47 9 47 35 0 9 5 16 10 16 6 0 10 11 10 25 0 14 5 25 10
25 6 0 10 14 10 30 0 33 -8 37 -27 15z"/>
<path d="M9293 15775 c-7 -8 -13 -20 -13 -27 0 -8 -9 -20 -20 -28 -11 -8 -20
-21 -20 -30 0 -9 -9 -22 -20 -30 -11 -8 -20 -22 -20 -32 0 -10 -5 -18 -11 -18
-17 0 -39 -27 -39 -49 0 -12 5 -21 10 -21 6 0 10 5 10 10 0 6 7 10 15 10 9 0
15 9 15 21 0 11 18 38 40 59 22 21 40 45 40 52 0 7 9 20 20 28 12 8 20 26 20
42 0 31 -8 35 -27 13z"/>
<path d="M9103 15505 c-18 -19 -33 -41 -33 -49 0 -8 -6 -16 -12 -19 -7 -2 -10
-8 -6 -12 8 -8 38 18 38 34 0 5 9 13 20 16 11 3 20 15 20 26 0 10 5 19 10 19
6 0 10 5 10 10 0 17 -14 10 -47 -25z"/>
<path d="M10733 15205 c-13 -13 -23 -29 -23 -35 0 -7 -18 -29 -40 -50 -22 -21
-40 -45 -40 -52 0 -7 -9 -20 -20 -28 -18 -13 -29 -60 -14 -60 10 0 34 28 34
39 0 6 4 11 8 11 5 0 15 12 23 28 8 15 22 34 31 43 10 9 18 23 18 30 0 8 9 21
20 29 11 8 20 22 20 32 0 10 5 18 10 18 6 0 10 5 10 10 0 16 -13 11 -37 -15z"/>
<path d="M10565 14991 c3 -6 -10 -26 -30 -45 -19 -19 -35 -40 -35 -46 0 -6
-27 -38 -60 -70 -33 -32 -60 -66 -60 -75 0 -17 -63 -85 -80 -85 -5 0 -10 -6
-10 -14 0 -7 -31 -46 -70 -86 -38 -40 -70 -80 -70 -89 0 -9 -9 -23 -20 -31
-11 -8 -20 -22 -20 -32 0 -11 -7 -18 -20 -18 -16 0 -20 -7 -20 -30 0 -16 5
-30 10 -30 6 0 10 5 10 10 0 6 8 10 19 10 12 0 20 9 24 29 4 16 18 41 32 55
14 14 25 28 25 31 0 4 18 24 40 45 22 21 40 46 40 54 0 10 9 16 25 16 16 0 25
6 25 16 0 9 14 29 30 44 17 15 30 34 30 42 0 7 9 20 20 28 11 8 20 21 20 30 0
9 23 39 50 68 28 29 50 57 50 63 0 13 46 59 60 59 5 0 10 6 10 14 0 22 -11 46
-22 46 -5 0 -7 -4 -3 -9z"/>
<path d="M9805 14210 c3 -5 8 -10 11 -10 2 0 4 5 4 10 0 6 -5 10 -11 10 -5 0
-7 -4 -4 -10z"/>
<path d="M8220 14150 c0 -11 5 -20 10 -20 6 0 10 -37 10 -90 0 -53 -4 -90 -10
-90 -5 0 -10 -14 -10 -31 0 -32 -19 -59 -42 -59 -8 0 -20 -9 -28 -20 -9 -12
-26 -20 -43 -20 -16 0 -38 -10 -52 -25 -21 -20 -25 -34 -25 -80 0 -30 -4 -55
-10 -55 -5 0 -10 -5 -10 -11 0 -5 5 -7 10 -4 6 3 10 1 10 -4 0 -6 -4 -11 -10
-11 -5 0 -10 -25 -10 -55 0 -30 -4 -55 -10 -55 -5 0 -10 -25 -10 -55 0 -30 -4
-55 -10 -55 -5 0 -10 -16 -10 -35 0 -19 -4 -35 -10 -35 -5 0 -10 -9 -10 -20 0
-11 -4 -20 -10 -20 -5 0 -10 -8 -10 -18 0 -10 -9 -24 -20 -32 -11 -8 -20 -20
-20 -27 0 -16 -85 -103 -100 -103 -5 0 -10 -4 -10 -10 0 -5 -9 -10 -20 -10
-11 0 -20 -7 -20 -15 0 -8 -4 -15 -10 -15 -5 0 -10 -13 -10 -30 0 -16 -4 -30
-10 -30 -5 0 -10 -19 -10 -42 0 -32 -3 -39 -10 -28 -6 10 -10 -41 -10 -153 0
-110 -3 -166 -10 -162 -5 3 -10 -1 -10 -9 0 -9 -4 -16 -10 -16 -5 0 -10 -16
-10 -36 0 -21 -4 -33 -10 -29 -5 3 -10 1 -10 -4 0 -6 5 -11 10 -11 6 0 -10
-20 -34 -45 -25 -25 -55 -45 -66 -45 -11 0 -20 -4 -20 -10 0 -5 -9 -10 -20
-10 -11 0 -20 -4 -20 -10 0 -5 18 -10 41 -10 24 0 38 4 34 10 -4 6 7 10 24 10
24 0 31 4 31 20 0 13 7 20 20 20 11 0 20 5 20 10 0 6 9 10 20 10 13 0 20 7 20
20 0 11 5 20 10 20 6 0 10 7 10 15 0 8 5 15 10 15 6 0 10 23 10 51 0 31 4 48
10 44 6 -4 10 23 10 75 0 45 4 79 9 76 5 -3 9 40 10 97 1 56 6 104 11 105 6 2
10 12 10 23 0 14 7 19 25 19 14 0 25 5 25 10 0 6 7 10 16 10 18 0 44 23 44 39
0 6 7 11 15 11 20 0 105 85 105 105 0 8 5 15 10 15 6 0 10 14 10 30 0 17 5 30
10 30 6 0 10 70 10 190 0 120 4 190 10 190 6 0 10 15 10 33 0 34 40 83 48 59
6 -20 22 -14 22 8 0 13 7 20 20 20 11 0 20 5 20 10 0 6 7 10 16 10 20 0 44 24
44 44 0 9 5 16 10 16 6 0 10 9 10 20 0 11 5 20 10 20 6 0 10 21 10 48 0 34 3
43 10 32 8 -12 10 -9 10 13 0 15 -4 27 -10 27 -5 0 -10 23 -10 50 0 41 -5 56
-25 75 -29 30 -35 31 -35 5z"/>
<path d="M7973 14005 c-16 -16 -23 -37 -23 -62 0 -31 5 -40 27 -50 61 -29 93
-8 93 62 0 27 -6 52 -14 61 -21 21 -58 16 -83 -11z m63 -30 c14 -13 14 -17 0
-30 -8 -8 -20 -15 -26 -15 -17 0 -40 26 -40 44 0 21 46 21 66 1z"/>
<path d="M7620 13470 c0 -11 -4 -20 -10 -20 -5 0 -10 -9 -10 -21 0 -11 5 -17
10 -14 6 3 10 -3 10 -13 0 -23 18 -32 66 -32 27 0 34 4 34 20 0 11 5 20 10 20
15 0 12 49 -4 66 -8 8 -34 14 -60 14 -39 0 -46 -3 -46 -20z m80 -40 c0 -16 -7
-20 -30 -20 -23 0 -30 4 -30 20 0 16 7 20 30 20 23 0 30 -4 30 -20z"/>
<path d="M7273 12937 c4 -10 -3 -12 -24 -9 -29 4 -29 4 -29 -47 0 -28 5 -51
10 -51 6 0 10 -7 10 -15 0 -11 12 -15 45 -15 33 0 45 4 45 15 0 8 9 15 20 15
16 0 20 7 20 36 0 38 -18 64 -44 64 -9 0 -16 5 -16 10 0 6 -9 10 -21 10 -13 0
-19 -5 -16 -13z m42 -37 c-3 -5 -1 -10 4 -10 6 0 11 -9 11 -20 0 -16 -7 -20
-30 -20 -16 0 -30 5 -30 10 0 6 -7 10 -15 10 -8 0 -15 9 -15 20 0 17 7 20 41
20 24 0 38 -4 34 -10z"/>
<path d="M7330 12424 c0 -3 6 -11 13 -17 14 -14 69 -19 61 -6 -3 5 -16 9 -30
9 -13 0 -24 5 -24 10 0 6 -4 10 -10 10 -5 0 -10 -3 -10 -6z"/>
<path d="M8492 13843 c4 -23 104 -123 123 -123 8 0 15 -4 15 -10 0 -5 5 -10
10 -10 11 0 60 -45 60 -55 0 -7 208 -215 215 -215 10 0 75 -69 75 -80 0 -5 7
-10 15 -10 9 0 51 -36 95 -80 44 -44 82 -80 85 -80 13 0 36 -30 31 -39 -3 -5
3 -7 13 -4 20 5 71 -36 71 -57 0 -5 9 -10 20 -10 11 0 20 -4 20 -10 0 -5 9
-10 20 -10 11 0 20 -4 20 -10 0 -6 35 -10 85 -10 50 0 85 4 85 10 0 6 7 10 16
10 15 0 44 23 44 35 0 4 14 20 30 35 17 15 30 34 30 42 0 7 9 20 20 28 12 8
20 26 20 42 0 15 5 28 10 28 6 0 10 16 10 36 0 19 4 33 9 29 5 -3 12 -1 16 5
3 5 1 10 -6 10 -6 0 -51 -40 -100 -90 -48 -49 -93 -90 -99 -90 -6 0 -8 -4 -5
-10 3 -5 -3 -10 -14 -10 -12 0 -21 -4 -21 -10 0 -6 -27 -10 -61 -10 -55 0 -64
3 -89 30 -15 17 -33 30 -40 30 -6 0 -38 27 -70 60 -32 33 -66 60 -75 60 -15 0
-65 42 -65 55 0 10 -49 55 -60 55 -6 0 -38 27 -70 60 -32 33 -63 60 -67 60 -5
0 -15 9 -23 20 -8 11 -21 20 -28 20 -8 0 -27 14 -42 30 -15 17 -35 30 -44 30
-9 0 -16 5 -16 10 0 17 -108 120 -126 120 -8 0 -33 18 -54 40 -21 22 -46 40
-54 40 -9 0 -16 5 -16 10 0 6 -5 10 -10 10 -6 0 -10 -8 -8 -17z"/>
<path d="M9826 12902 c-3 -5 4 -15 15 -22 10 -8 19 -22 19 -32 0 -10 5 -18 10
-18 6 0 10 -5 10 -10 0 -11 65 -80 75 -80 3 0 5 7 5 16 0 20 -24 44 -45 44
-11 0 -15 5 -12 15 7 16 -68 101 -77 87z"/>
<path d="M9960 12735 c0 -8 48 -55 55 -55 3 0 33 -27 65 -60 32 -33 66 -60 74
-60 8 0 16 -6 19 -12 2 -7 8 -10 12 -6 10 9 -40 58 -60 58 -13 0 -19 12 -16
33 0 4 -8 7 -19 7 -11 0 -20 7 -20 15 0 18 -43 65 -60 65 -5 0 -10 5 -10 10 0
6 -9 10 -20 10 -11 0 -20 -2 -20 -5z"/>
<path d="M14085 16030 c-3 -5 -17 -10 -31 -10 -13 0 -24 -4 -24 -10 0 -5 -18
-10 -40 -10 -22 0 -40 -4 -40 -10 0 -5 -11 -10 -25 -10 -14 0 -25 -4 -25 -10
0 -5 -9 -10 -20 -10 -11 0 -20 -4 -20 -10 0 -5 -13 -10 -28 -10 -16 0 -34 -8
-42 -20 -8 -11 -20 -20 -28 -20 -18 0 -42 -25 -42 -44 0 -9 -13 -30 -30 -48
-16 -17 -30 -35 -30 -40 0 -13 -26 -38 -39 -38 -6 0 -11 -18 -11 -39 0 -22 -4
-43 -10 -46 -5 -3 -10 -37 -10 -76 0 -39 -4 -69 -10 -69 -5 0 -10 -22 -10 -50
0 -27 5 -50 10 -50 6 0 10 -28 10 -65 0 -37 -4 -65 -10 -65 -5 0 -10 -17 -10
-38 0 -26 6 -42 20 -52 14 -10 20 -26 20 -52 0 -27 4 -38 15 -38 12 0 15 -18
15 -100 0 -82 -3 -100 -15 -100 -9 0 -15 -9 -15 -21 0 -28 -23 -49 -53 -49
-14 0 -28 -6 -31 -12 -5 -10 -7 -10 -12 0 -3 6 -23 12 -45 12 -21 0 -39 5 -39
10 0 6 -8 10 -18 10 -10 0 -24 9 -32 20 -8 11 -18 20 -23 20 -12 0 -57 47 -57
61 0 6 -13 24 -30 39 -21 19 -30 37 -30 59 0 17 -4 31 -10 31 -6 0 -10 30 -10
70 0 40 -4 70 -10 70 -5 0 -10 14 -10 30 0 17 -4 30 -10 30 -5 0 -10 11 -10
25 0 14 -4 25 -10 25 -5 0 -10 14 -10 30 0 17 -4 30 -10 30 -5 0 -10 9 -10 20
0 16 -7 20 -34 20 -19 0 -36 -6 -39 -12 -3 -10 -7 -10 -19 0 -13 10 -17 10
-21 0 -4 -10 -6 -10 -6 0 -1 14 -51 17 -51 2 0 -5 -22 -10 -50 -10 -27 0 -50
-4 -50 -10 0 -5 -9 -10 -20 -10 -17 0 -20 -7 -20 -45 0 -25 5 -45 10 -45 6 0
10 -13 10 -30 0 -16 5 -30 10 -30 6 0 10 -13 10 -30 0 -16 5 -30 10 -30 6 0
10 -29 10 -66 0 -41 4 -63 10 -59 6 4 10 -8 10 -29 0 -20 5 -36 10 -36 6 0 10
-8 10 -18 0 -10 9 -24 20 -32 11 -8 20 -21 20 -30 0 -9 9 -22 20 -30 11 -8 20
-21 20 -30 0 -9 9 -22 20 -30 11 -8 20 -22 20 -32 0 -10 5 -18 10 -18 6 0 10
-9 10 -19 0 -11 5 -23 12 -27 7 -4 8 -3 4 4 -4 7 -2 12 3 12 6 0 11 -9 11 -20
0 -11 5 -20 10 -20 6 0 10 -7 10 -15 0 -8 34 -49 75 -90 53 -54 82 -75 100
-75 14 0 25 5 25 10 0 18 45 10 60 -10 8 -11 24 -20 36 -20 12 0 25 -6 27 -12
4 -10 6 -10 6 0 1 9 30 12 111 12 67 0 110 4 110 10 0 6 16 10 35 10 19 0 35
5 35 10 0 6 11 10 25 10 29 0 75 40 75 65 0 8 5 15 10 15 6 0 10 18 10 40 0
22 5 40 10 40 6 0 10 9 10 20 0 11 5 20 10 20 6 0 10 11 10 25 0 14 5 25 11
25 5 0 7 -5 3 -12 -4 -7 -3 -8 4 -4 7 4 12 29 12 57 0 27 5 49 10 49 6 0 10
40 10 99 0 70 4 101 13 104 9 4 8 8 -3 16 -10 7 -11 11 -2 11 7 0 12 14 12 35
0 19 -4 35 -10 35 -6 0 -10 32 -10 75 0 43 -4 75 -10 75 -5 0 -10 18 -10 40 0
29 -4 40 -15 40 -11 0 -15 11 -15 39 0 22 -5 41 -12 43 -7 3 -5 13 7 31 9 15
21 24 26 21 5 -3 9 13 9 35 0 34 3 41 20 41 11 0 20 5 20 10 0 6 18 10 40 10
22 0 40 5 40 10 0 6 32 10 75 10 46 0 75 -4 75 -11 0 -5 5 -7 10 -4 6 3 10 -1
10 -9 0 -9 4 -16 8 -16 4 0 9 -19 11 -41 1 -32 9 -49 31 -69 23 -21 30 -37 30
-64 0 -20 5 -36 10 -36 6 0 10 -8 10 -18 0 -10 9 -24 20 -32 11 -8 20 -25 20
-37 0 -13 5 -23 10 -23 6 0 10 -18 10 -40 0 -22 5 -40 10 -40 6 0 10 -9 10
-20 0 -18 7 -20 55 -20 30 0 55 5 55 10 0 6 9 10 20 10 11 0 20 5 20 10 0 6 9
10 20 10 11 0 20 5 20 10 0 6 23 10 50 10 l50 0 0 65 c0 37 -4 65 -10 65 -5 0
-10 9 -10 20 0 11 -6 20 -12 20 -10 0 -10 2 -1 8 9 6 7 12 -7 22 -11 8 -20 21
-20 30 0 9 -9 22 -20 30 -17 12 -20 26 -20 83 l0 68 -50 49 c-27 27 -50 56
-50 64 0 9 -5 16 -10 16 -17 0 -80 68 -80 85 0 19 -84 105 -103 105 -7 0 -19
9 -27 20 -8 11 -22 20 -32 20 -10 0 -18 5 -18 10 0 6 -16 10 -35 10 -19 0 -35
5 -35 10 0 6 -13 10 -29 10 -17 0 -33 -4 -36 -10z m-75 -290 c0 -5 -4 -10 -10
-10 -5 0 -10 5 -10 10 0 6 5 10 10 10 6 0 10 -4 10 -10z m450 -120 c0 -5 7
-10 15 -10 9 0 15 -9 15 -23 0 -12 9 -29 20 -37 14 -10 20 -26 20 -50 0 -24 6
-40 20 -50 18 -13 30 -70 14 -70 -11 0 -34 29 -34 44 0 9 -4 16 -8 16 -4 0 -9
12 -10 26 -2 27 -23 54 -41 54 -6 0 -11 16 -11 35 0 19 -4 35 -10 35 -5 0 -10
9 -10 20 0 11 5 20 10 20 6 0 10 -4 10 -10z m-740 -290 c0 -5 -4 -10 -10 -10
-5 0 -10 5 -10 10 0 6 5 10 10 10 6 0 10 -4 10 -10z m20 -120 c0 -11 -4 -20
-10 -20 -5 0 -10 9 -10 20 0 11 5 20 10 20 6 0 10 -9 10 -20z m-684 -14 c8 -8
14 -26 14 -40 0 -16 6 -26 15 -26 8 0 15 -7 15 -16 0 -8 5 -12 10 -9 6 3 10 0
10 -7 0 -19 23 -68 33 -68 4 0 7 -11 7 -24 0 -13 6 -27 13 -30 10 -5 10 -7 0
-12 -7 -3 -13 -14 -13 -25 0 -10 -4 -19 -10 -19 -5 0 -10 14 -10 30 0 17 -5
30 -11 30 -7 0 -10 15 -7 39 2 28 0 37 -9 34 -7 -3 -13 0 -13 6 0 6 -7 11 -15
11 -8 0 -15 9 -15 20 0 11 -4 20 -10 20 -5 0 -10 14 -10 30 0 17 -4 30 -10 30
-5 0 -10 9 -10 20 0 24 6 25 26 6z m704 -151 c0 -25 -4 -45 -10 -45 -5 0 -10
20 -10 45 0 25 5 45 10 45 6 0 10 -20 10 -45z m20 -323 c0 -4 -9 -14 -20 -22
-11 -8 -20 -22 -20 -32 0 -11 -7 -18 -20 -18 -11 0 -20 -4 -20 -10 0 -5 -9
-10 -20 -10 -11 0 -20 3 -20 6 0 10 28 34 40 34 17 0 40 26 40 44 0 9 8 16 20
16 11 0 20 -4 20 -8z m-390 -42 c0 -5 18 -10 40 -10 22 0 40 -4 40 -10 0 -5 9
-10 20 -10 11 0 20 -7 20 -15 0 -19 -32 -33 -38 -17 -2 7 -21 12 -43 12 -21 0
-39 5 -39 10 0 6 -11 10 -25 10 -18 0 -25 5 -25 20 0 15 7 20 25 20 14 0 25
-4 25 -10z"/>
<path d="M3030 16010 c0 -5 -9 -10 -20 -10 -11 0 -20 -4 -20 -10 0 -5 -9 -10
-20 -10 -11 0 -20 -4 -20 -10 0 -5 -7 -10 -15 -10 -17 0 -105 -84 -105 -100 0
-5 -6 -10 -13 -10 -7 0 -19 -9 -27 -20 -8 -11 -20 -20 -27 -20 -8 0 -43 -29
-78 -65 -61 -60 -65 -68 -65 -110 0 -25 -4 -45 -10 -45 -5 0 -10 -11 -10 -25
0 -14 -4 -25 -10 -25 -5 0 -10 -9 -10 -20 0 -11 -4 -20 -10 -20 -5 0 -10 -14
-10 -31 0 -17 -4 -28 -10 -24 -5 3 -10 -1 -10 -9 0 -9 -5 -16 -11 -16 -26 0
-39 -30 -39 -89 0 -34 4 -61 10 -61 6 0 10 -13 10 -30 0 -20 5 -30 15 -30 8 0
15 -9 15 -20 0 -11 5 -20 10 -20 6 0 10 -9 10 -20 0 -11 5 -20 10 -20 6 0 10
-9 10 -20 0 -11 5 -20 10 -20 6 0 10 -6 10 -13 0 -7 9 -23 20 -35 11 -12 20
-24 20 -27 0 -11 49 -55 61 -55 6 0 24 -13 39 -30 l28 -30 166 0 c104 0 166 4
166 10 0 6 9 10 20 10 11 0 20 5 20 10 0 6 9 10 20 10 11 0 20 5 20 10 0 6 9
10 20 10 11 0 20 5 20 10 0 6 9 10 20 10 11 0 20 5 20 10 0 6 12 10 28 10 28
0 52 33 52 72 0 10 6 18 14 18 8 0 16 4 18 9 2 5 10 11 18 13 8 2 22 11 31 21
9 9 24 17 33 17 10 0 14 5 11 10 -3 6 1 10 9 10 9 0 16 5 16 10 0 6 9 10 20
10 11 0 20 5 20 10 0 6 18 10 40 10 22 0 40 5 40 10 0 6 28 10 65 10 37 0 65
-4 65 -10 0 -5 14 -10 30 -10 22 0 30 -5 30 -18 0 -10 9 -24 20 -32 12 -8 20
-26 20 -42 0 -15 5 -28 10 -28 6 0 10 -13 10 -30 0 -16 -4 -30 -10 -30 -5 0
-10 -14 -10 -31 0 -19 -8 -38 -19 -48 -10 -9 -21 -28 -22 -41 -2 -14 -25 -46
-51 -72 -27 -26 -48 -54 -48 -62 0 -9 -4 -16 -10 -16 -5 0 -10 -5 -10 -11 0
-14 -25 -39 -39 -39 -6 0 -11 -4 -11 -10 0 -5 -9 -10 -21 -10 -11 0 -17 -4
-14 -10 3 -5 -1 -10 -9 -10 -9 0 -16 -4 -16 -10 0 -5 -9 -10 -20 -10 -11 0
-20 -4 -20 -10 0 -5 -9 -10 -20 -10 -11 0 -20 -4 -20 -10 0 -5 -9 -10 -20 -10
-11 0 -20 -4 -20 -10 0 -6 -28 -10 -65 -10 -37 0 -65 -4 -65 -10 0 -5 5 -10
10 -10 6 0 10 -9 10 -20 0 -11 5 -20 11 -20 20 0 39 -29 39 -59 0 -17 5 -31
10 -31 6 0 10 -11 10 -25 0 -41 36 -95 64 -95 9 0 16 -7 16 -16 0 -14 28 -51
33 -43 2 2 9 16 17 32 7 15 22 27 32 27 11 0 16 5 13 10 -3 6 1 10 9 10 9 0
16 5 16 10 0 6 11 10 25 10 14 0 25 5 25 10 0 6 9 10 20 10 11 0 20 3 20 8 0
8 48 32 64 32 6 0 24 16 41 35 16 19 34 35 40 35 6 0 17 9 25 20 8 11 23 20
33 20 23 0 47 23 47 44 0 9 7 16 15 16 18 0 85 64 85 81 0 7 3 10 6 6 9 -9 54
40 54 59 0 9 14 29 30 44 17 15 30 35 30 44 0 9 7 16 15 16 13 0 15 22 15 140
0 107 -3 139 -12 137 -8 -1 -14 12 -16 36 -2 20 -7 37 -13 37 -5 0 -9 14 -9
30 0 17 -4 30 -10 30 -5 0 -10 9 -10 20 0 11 -4 20 -10 20 -5 0 -10 11 -10 25
0 16 -6 25 -16 25 -18 0 -44 23 -44 40 0 16 -87 100 -105 100 -8 0 -15 5 -15
10 0 6 -7 10 -15 10 -8 0 -15 5 -15 10 0 6 -52 10 -135 10 -83 0 -135 -4 -135
-10 0 -5 -18 -10 -40 -10 -22 0 -40 -4 -40 -10 0 -5 -13 -10 -30 -10 -16 0
-30 -4 -30 -10 0 -5 -9 -10 -19 -10 -11 0 -21 -4 -23 -10 -1 -5 -15 -11 -30
-12 -15 -1 -24 -6 -22 -10 3 -4 -2 -8 -10 -8 -9 0 -16 -4 -16 -10 0 -5 -7 -10
-15 -10 -8 0 -15 -7 -15 -16 0 -25 -26 -44 -60 -44 -28 0 -60 -18 -60 -35 0
-12 -28 -35 -42 -35 -8 0 -20 -9 -28 -20 -8 -11 -22 -20 -31 -20 -10 0 -20 -6
-22 -12 -4 -10 -8 -9 -16 2 -10 13 -12 13 -21 0 -6 -10 -10 -11 -10 -2 0 8
-17 12 -51 12 -31 0 -48 4 -44 10 3 6 -3 10 -15 10 -38 0 -70 44 -70 95 0 25
-4 45 -10 45 -5 0 -10 19 -10 43 0 31 5 46 20 57 12 8 20 26 20 42 0 15 5 28
10 28 6 0 10 7 10 15 0 8 5 15 10 15 6 0 10 7 10 15 0 20 65 85 85 85 8 0 15
5 15 10 0 6 9 10 20 10 11 0 20 5 20 10 0 6 7 10 15 10 8 0 15 5 15 10 0 6 14
10 30 10 17 0 30 5 30 10 0 6 9 10 20 10 13 0 20 7 20 20 0 11 -4 20 -10 20
-5 0 -10 9 -10 20 0 11 -4 20 -10 20 -5 0 -10 5 -10 11 0 15 -26 39 -44 39 -9
0 -16 11 -18 28 -2 15 -8 26 -15 25 -7 -2 -13 6 -13 18 0 11 -6 27 -14 35 -17
16 -26 18 -26 4z m-120 -231 c0 -5 -4 -7 -10 -4 -5 3 -10 1 -10 -5 0 -11 -65
-80 -75 -80 -3 0 -28 -22 -56 -50 -44 -43 -79 -63 -79 -44 0 3 23 27 50 54 28
27 50 54 50 60 0 18 26 40 47 40 10 0 25 9 33 20 15 21 50 28 50 9z m-190
-599 c0 -36 -4 -37 -35 -5 -32 31 -31 35 5 35 27 0 30 -3 30 -30z m540 -60 c0
-5 -4 -10 -9 -10 -6 0 -13 5 -16 10 -3 6 1 10 9 10 9 0 16 -4 16 -10z m-20
-20 c0 -5 -9 -10 -20 -10 -11 0 -20 -4 -20 -10 0 -5 -16 -10 -36 -10 -21 0
-33 -4 -29 -10 3 -5 -3 -10 -14 -10 -12 0 -21 3 -21 6 0 11 29 34 44 34 9 0
16 5 16 10 0 6 18 10 40 10 22 0 40 -4 40 -10z m810 -45 c0 -30 -4 -55 -10
-55 -5 0 -10 18 -10 39 0 22 -4 43 -10 46 -17 10 -11 25 10 25 18 0 20 -7 20
-55z m-1034 1 c22 -23 17 -26 -36 -26 -27 0 -50 5 -50 10 0 6 9 10 20 10 11 0
20 5 20 10 0 15 29 12 46 -4z m724 -502 c0 -20 -24 -44 -44 -44 -9 0 -16 -4
-16 -10 0 -5 -11 -10 -25 -10 -16 0 -25 -6 -25 -15 0 -10 -10 -15 -28 -15 -16
0 -34 -8 -42 -20 -8 -11 -22 -20 -32 -20 -11 0 -18 7 -18 20 0 11 5 20 10 20
6 0 10 7 10 15 0 11 11 15 38 15 26 0 42 6 52 20 8 11 25 20 37 20 13 0 23 5
23 10 0 6 9 10 20 10 11 0 20 5 20 10 0 6 5 10 10 10 6 0 10 -7 10 -16z"/>
</g>
</svg>
